<svg xmlns="http://www.w3.org/2000/svg" xmlns:xlink="http://www.w3.org/1999/xlink" width="1920" zoomAndPan="magnify" viewBox="0 0 1440 809.999993" height="1080" preserveAspectRatio="xMidYMid meet" version="1.0"><defs><g/><clipPath id="1d9017610f"><path d="M 596 196 L 1213 196 L 1213 652 L 596 652 Z M 596 196 " clip-rule="nonzero"/></clipPath><clipPath id="33c51d9cc8"><path d="M 567.484375 262.824219 L 1165.179688 117.953125 L 1269.238281 547.273438 L 671.542969 692.144531 Z M 567.484375 262.824219 " clip-rule="nonzero"/></clipPath><clipPath id="defeeace81"><path d="M 567.484375 262.824219 L 1165.179688 117.953125 L 1269.238281 547.273438 L 671.542969 692.144531 Z M 567.484375 262.824219 " clip-rule="nonzero"/></clipPath><clipPath id="87d386c9fd"><path d="M 170.863281 375.363281 L 257 375.363281 L 257 461.613281 L 170.863281 461.613281 Z M 170.863281 375.363281 " clip-rule="nonzero"/></clipPath></defs><g clip-path="url(#1d9017610f)"><g clip-path="url(#33c51d9cc8)"><g clip-path="url(#defeeace81)"><path fill="#e11d48" d="M 1201.542969 320.757812 C 1203.777344 329.234375 1208.46875 334.289062 1212.324219 337.132812 C 1206.511719 345.003906 1200.667969 352.832031 1194.789062 360.632812 C 1188.394531 355.824219 1177.992188 345.601562 1173.4375 328.386719 C 1162.652344 342.824219 1151.734375 357.160156 1140.6875 371.398438 C 1128.070312 387.660156 1115.28125 403.789062 1102.292969 419.773438 C 1089.304688 435.761719 1076.113281 451.59375 1062.679688 467.246094 C 1049.242188 482.894531 1035.558594 498.355469 1021.539062 513.5625 C 1007.511719 528.761719 993.164062 543.710938 978.300781 558.246094 C 963.433594 572.777344 948.070312 586.917969 931.800781 600.285156 C 915.484375 613.597656 898.394531 626.308594 878.933594 636.753906 C 869.167969 641.910156 858.753906 646.523438 847 649.382812 C 841.105469 650.757812 834.84375 651.671875 828.207031 651.582031 C 824.894531 651.542969 821.484375 651.1875 818.070312 650.578125 C 814.644531 649.898438 811.222656 648.898438 807.894531 647.554688 C 804.585938 646.152344 801.402344 644.429688 798.449219 642.414062 C 795.777344 640.355469 793.0625 638.453125 790.691406 635.96875 C 788.175781 633.6875 786.070312 630.960938 783.960938 628.28125 C 783.019531 626.863281 782.09375 625.433594 781.183594 623.992188 C 780.707031 623.28125 780.308594 622.542969 779.941406 621.789062 L 778.804688 619.535156 C 775.890625 613.511719 773.929688 607.1875 772.964844 601.050781 L 772.550781 598.738281 L 772.300781 596.457031 C 772.148438 594.941406 771.960938 593.410156 771.855469 591.902344 C 771.765625 588.929688 771.546875 585.898438 771.691406 583.007812 C 771.941406 571.296875 773.753906 560.222656 776.25 549.601562 C 778.742188 538.96875 781.886719 528.71875 785.351562 518.691406 C 792.3125 498.652344 800.527344 479.464844 809.066406 460.59375 C 817.613281 441.722656 826.542969 423.1875 835.378906 404.734375 C 844.214844 386.28125 852.984375 367.914062 861.132812 349.460938 C 869.242188 331.023438 876.871094 312.445312 882.371094 293.863281 C 885.09375 284.59375 887.238281 275.3125 888.273438 266.390625 L 888.683594 261.445312 L 888.71875 259.84375 C 888.734375 258.785156 888.785156 257.703125 888.785156 256.65625 L 888.644531 253.589844 C 888.347656 249.582031 887.679688 245.851562 886.542969 242.6875 C 885.335938 239.570312 883.734375 237.035156 881.636719 234.875 C 881.101562 234.34375 880.632812 233.75 879.957031 233.316406 L 879.035156 232.585938 C 878.71875 232.339844 878.46875 232.074219 878.042969 231.847656 C 877.273438 231.378906 876.507812 230.898438 875.753906 230.402344 L 873.34375 229.183594 C 870.066406 227.675781 866.527344 226.636719 862.734375 226.046875 C 858.949219 225.441406 854.859375 225.460938 850.691406 225.753906 C 842.308594 226.386719 833.480469 228.757812 824.757812 231.910156 C 816.019531 235.164062 807.347656 239.28125 798.835938 243.902344 C 781.804688 253.226562 765.40625 264.511719 749.542969 276.601562 C 733.683594 288.726562 718.335938 301.738281 703.40625 315.269531 C 688.476562 328.8125 673.929688 342.855469 659.761719 357.285156 C 652.671875 364.496094 645.675781 371.804688 638.78125 379.199219 C 635.332031 382.894531 631.914062 386.613281 628.527344 390.351562 C 625.164062 394.066406 621.734375 397.894531 618.570312 401.546875 L 596.511719 382.578125 C 600.054688 378.488281 603.457031 374.691406 606.964844 370.816406 C 610.453125 366.964844 613.964844 363.148438 617.5 359.355469 C 624.574219 351.773438 631.738281 344.285156 639.007812 336.894531 C 653.53125 322.101562 668.464844 307.683594 683.871094 293.707031 C 699.285156 279.738281 715.203125 266.234375 731.882812 253.480469 C 748.582031 240.761719 766 228.714844 784.90625 218.355469 C 794.386719 213.214844 804.246094 208.5 814.707031 204.605469 C 825.21875 200.820312 836.320312 197.707031 848.394531 196.75 C 854.417969 196.316406 860.636719 196.285156 866.984375 197.261719 C 873.308594 198.21875 879.691406 200.042969 885.707031 202.847656 C 887.1875 203.589844 888.679688 204.320312 890.136719 205.113281 L 894.347656 207.75 C 895.042969 208.15625 895.753906 208.746094 896.453125 209.28125 L 898.542969 210.929688 C 899.964844 211.980469 901.21875 213.296875 902.488281 214.582031 C 907.542969 219.738281 911.402344 226.097656 913.820312 232.5625 C 916.175781 239.042969 917.226562 245.492188 917.679688 251.683594 L 917.875 256.285156 C 917.886719 257.796875 917.828125 259.277344 917.796875 260.777344 L 917.738281 263.015625 L 917.5625 265.195312 L 917.195312 269.550781 C 915.871094 280.980469 913.316406 291.707031 910.28125 302.078125 C 904.136719 322.785156 896.113281 342.160156 887.753906 361.203125 C 879.355469 380.21875 870.46875 398.816406 861.617188 417.300781 C 852.765625 435.785156 843.921875 454.15625 835.570312 472.59375 C 827.222656 491.027344 819.324219 509.550781 812.847656 528.210938 C 809.621094 537.53125 806.765625 546.890625 804.585938 556.199219 C 802.386719 565.496094 800.960938 574.765625 800.78125 583.539062 C 800.652344 585.765625 800.851562 587.847656 800.886719 589.992188 C 800.960938 591.039062 801.101562 592.046875 801.199219 593.078125 L 801.351562 594.617188 L 801.632812 596.078125 C 802.230469 600.0625 803.433594 603.601562 804.957031 606.785156 L 805.542969 607.964844 C 805.722656 608.371094 805.921875 608.761719 806.179688 609.101562 C 806.65625 609.8125 807.117188 610.535156 807.566406 611.269531 C 808.671875 612.558594 809.632812 613.96875 810.957031 615.097656 C 812.082031 616.375 813.652344 617.347656 814.980469 618.472656 C 816.265625 619.335938 817.601562 620.046875 819 620.664062 C 820.429688 621.222656 821.929688 621.667969 823.527344 622 C 825.152344 622.265625 826.847656 622.472656 828.65625 622.492188 C 832.261719 622.542969 836.21875 622.019531 840.285156 621.070312 C 848.460938 619.101562 856.980469 615.472656 865.289062 611.054688 C 881.964844 602.132812 897.980469 590.367188 913.347656 577.789062 C 928.730469 565.15625 943.539062 551.539062 957.957031 537.445312 C 972.378906 523.34375 986.402344 508.738281 1000.152344 493.835938 C 1013.894531 478.929688 1027.359375 463.71875 1040.605469 448.292969 C 1053.847656 432.867188 1066.875 417.230469 1079.710938 401.425781 C 1092.550781 385.625 1105.210938 369.660156 1117.703125 353.5625 C 1128.640625 339.46875 1139.449219 325.269531 1150.128906 310.976562 C 1132.390625 311.382812 1119.765625 304.058594 1113.378906 299.253906 C 1119.058594 291.71875 1124.699219 284.15625 1130.296875 276.578125 C 1134.148438 279.417969 1140.332031 282.46875 1149.007812 282.179688 C 1157.65625 281.90625 1168.917969 278.226562 1182.5 267.660156 L 1205.324219 283.742188 C 1199.5 300.46875 1199.304688 312.253906 1201.542969 320.757812 Z M 1201.542969 320.757812 " fill-opacity="1" fill-rule="nonzero"/></g></g></g><g clip-path="url(#87d386c9fd)"><path fill="#e11d48" d="M 256.753906 406.617188 L 256.753906 430.191406 C 228.195312 438.542969 223.933594 453.355469 223.933594 461.445312 L 199.367188 461.445312 C 199.367188 454.691406 200.925781 442.472656 210.308594 430.683594 L 170.898438 430.683594 L 170.898438 406.121094 L 210.308594 406.121094 C 200.925781 394.335938 199.367188 382.117188 199.367188 375.363281 L 223.933594 375.363281 C 223.933594 383.449219 228.195312 398.265625 256.753906 406.617188 Z M 256.753906 406.617188 " fill-opacity="1" fill-rule="nonzero"/></g><g fill="#ffffff" fill-opacity="1"><g transform="translate(315.908105, 456.572837)"><g><path d="M 2.359375 0 L 32.96875 0 L 32.96875 -48.640625 L 68.546875 0 L 108.578125 0 L 108.578125 -82.4375 L 77.953125 -82.4375 L 77.953125 -33.796875 L 42.390625 -82.4375 L 2.359375 -82.4375 Z M 2.359375 0 "/></g></g></g><g fill="#ffffff" fill-opacity="1"><g transform="translate(426.802236, 456.572837)"><g><path d="M 53 1.171875 C 89.15625 1.171875 104.8125 -12.71875 104.8125 -41.328125 C 104.8125 -69.828125 89.15625 -83.609375 53 -83.609375 C 16.71875 -83.609375 1.171875 -69.953125 1.171875 -41.328125 C 1.171875 -12.59375 16.71875 1.171875 53 1.171875 Z M 53 -24.734375 C 34.96875 -24.734375 31.796875 -32.5 31.796875 -41.328125 C 31.796875 -50.046875 34.859375 -57.703125 53 -57.703125 C 71.125 -57.703125 74.1875 -49.9375 74.1875 -41.328125 C 74.1875 -32.625 71.015625 -24.734375 53 -24.734375 Z M 53 -24.734375 "/></g></g></g><g fill="#ffffff" fill-opacity="1"><g transform="translate(532.752029, 456.572837)"><g><path d="M 36.5 0 L 67.125 0 L 67.125 -56.53125 L 102.453125 -56.53125 L 102.453125 -82.4375 L 1.171875 -82.4375 L 1.171875 -56.53125 L 36.5 -56.53125 Z M 36.5 0 "/></g></g></g><g fill="#ffffff" fill-opacity="1"><g transform="translate(636.347401, 456.572837)"><g/></g></g><g fill="#ffffff" fill-opacity="1"><g transform="translate(683.436222, 456.572837)"><g><path d="M 2.359375 0 L 32.96875 0 L 32.96875 -21.78125 L 82.4375 -21.78125 L 82.4375 -47.6875 L 32.96875 -47.6875 L 32.96875 -56.53125 L 89.5 -56.53125 L 89.5 -82.4375 L 2.359375 -82.4375 Z M 2.359375 0 "/></g></g></g><g fill="#ffffff" fill-opacity="1"><g transform="translate(774.082153, 456.572837)"><g><path d="M 53 1.171875 C 89.15625 1.171875 104.8125 -12.71875 104.8125 -41.328125 C 104.8125 -69.828125 89.15625 -83.609375 53 -83.609375 C 16.71875 -83.609375 1.171875 -69.953125 1.171875 -41.328125 C 1.171875 -12.59375 16.71875 1.171875 53 1.171875 Z M 53 -24.734375 C 34.96875 -24.734375 31.796875 -32.5 31.796875 -41.328125 C 31.796875 -50.046875 34.859375 -57.703125 53 -57.703125 C 71.125 -57.703125 74.1875 -49.9375 74.1875 -41.328125 C 74.1875 -32.625 71.015625 -24.734375 53 -24.734375 Z M 53 -24.734375 "/></g></g></g><g fill="#ffffff" fill-opacity="1"><g transform="translate(880.031946, 456.572837)"><g><path d="M 54.171875 1.171875 C 90.328125 1.171875 105.984375 -12.71875 105.984375 -41.328125 L 105.984375 -82.4375 L 75.375 -82.4375 L 75.375 -41.328125 C 75.375 -32.625 72.1875 -24.734375 54.171875 -24.734375 C 36.15625 -24.734375 32.96875 -32.5 32.96875 -41.328125 L 32.96875 -82.4375 L 2.359375 -82.4375 L 2.359375 -41.328125 C 2.359375 -12.59375 17.90625 1.171875 54.171875 1.171875 Z M 54.171875 1.171875 "/></g></g></g><g fill="#ffffff" fill-opacity="1"><g transform="translate(988.33616, 456.572837)"><g><path d="M 2.359375 0 L 32.96875 0 L 32.96875 -48.640625 L 68.546875 0 L 108.578125 0 L 108.578125 -82.4375 L 77.953125 -82.4375 L 77.953125 -33.796875 L 42.390625 -82.4375 L 2.359375 -82.4375 Z M 2.359375 0 "/></g></g></g><g fill="#ffffff" fill-opacity="1"><g transform="translate(1099.230291, 456.572837)"><g><path d="M 2.359375 0 L 63.59375 0 C 83.5 0 102.21875 -13.1875 102.21875 -41.21875 C 102.21875 -69.25 83.5 -82.4375 63.59375 -82.4375 L 2.359375 -82.4375 Z M 32.96875 -25.90625 L 32.96875 -56.53125 L 54.171875 -56.53125 C 60.765625 -56.53125 71.59375 -56.53125 71.59375 -41.21875 C 71.59375 -25.90625 60.765625 -25.90625 54.171875 -25.90625 Z M 32.96875 -25.90625 "/></g></g></g><g fill="#ffffff" fill-opacity="1"><g transform="translate(315.908105, 523.978069)"><g><path d="M 22.984375 0.5 C 37.40625 0.5 45.453125 -1.96875 45.453125 -11.671875 C 45.453125 -20.859375 36.859375 -21.828125 22.984375 -22.375 C 15.328125 -22.671875 14.078125 -22.625 14.078125 -23.984375 C 14.078125 -25.34375 15.328125 -25.640625 21.46875 -25.640625 C 27.859375 -25.640625 30.875 -25.234375 30.875 -23.375 L 43.953125 -23.375 C 43.953125 -32.375 36.203125 -35.703125 22.46875 -35.703125 C 8.59375 -35.703125 1 -32.375 1 -24.640625 C 1 -16.4375 7.09375 -13.828125 22.984375 -13.328125 C 31.21875 -13.078125 32.375 -12.875 32.375 -11.359375 C 32.375 -10.0625 31.21875 -9.546875 23.484375 -9.546875 C 15.1875 -9.546875 13.578125 -10.703125 13.578125 -12.421875 L 0.5 -12.421875 C 0.5 -1.96875 8.546875 0.5 22.984375 0.5 Z M 22.984375 0.5 "/></g></g></g><g fill="#ffffff" fill-opacity="1"><g transform="translate(361.831469, 523.978069)"><g><path d="M 15.59375 0 L 28.65625 0 L 28.65625 -24.140625 L 43.75 -24.140625 L 43.75 -35.203125 L 0.5 -35.203125 L 0.5 -24.140625 L 15.59375 -24.140625 Z M 15.59375 0 "/></g></g></g><g fill="#ffffff" fill-opacity="1"><g transform="translate(406.04654, 523.978069)"><g><path d="M 22.625 0.5 C 38.0625 0.5 44.75 -5.4375 44.75 -17.65625 C 44.75 -29.8125 38.0625 -35.703125 22.625 -35.703125 C 7.140625 -35.703125 0.5 -29.859375 0.5 -17.65625 C 0.5 -5.375 7.140625 0.5 22.625 0.5 Z M 22.625 -10.5625 C 14.9375 -10.5625 13.578125 -13.875 13.578125 -17.65625 C 13.578125 -21.375 14.890625 -24.640625 22.625 -24.640625 C 30.375 -24.640625 31.671875 -21.3125 31.671875 -17.65625 C 31.671875 -13.921875 30.3125 -10.5625 22.625 -10.5625 Z M 22.625 -10.5625 "/></g></g></g><g fill="#ffffff" fill-opacity="1"><g transform="translate(451.266507, 523.978069)"><g><path d="M 1 0 L 14.078125 0 L 14.078125 -8.25 L 21.765625 -8.25 L 26.65625 0 L 42.140625 0 L 35.90625 -10.109375 C 39.765625 -12.375 42.140625 -16.59375 42.140625 -21.71875 C 42.140625 -29.5625 36.65625 -35.203125 28.65625 -35.203125 L 1 -35.203125 Z M 14.078125 -19.3125 L 14.078125 -24.140625 L 26.140625 -24.140625 C 27.453125 -24.140625 29.0625 -24.140625 29.0625 -21.71875 C 29.0625 -19.3125 27.453125 -19.3125 26.140625 -19.3125 Z M 14.078125 -19.3125 "/></g></g></g><g fill="#ffffff" fill-opacity="1"><g transform="translate(493.873731, 523.978069)"><g><path d="M 18.40625 0 L 31.46875 0 L 31.46875 -11.5625 L 49.375 -35.203125 L 34.296875 -35.203125 L 24.9375 -22.125 L 15.59375 -35.203125 L 0.5 -35.203125 L 18.40625 -11.5625 Z M 18.40625 0 "/></g></g></g><g fill="#ffffff" fill-opacity="1"><g transform="translate(543.716185, 523.978069)"><g/></g></g><g fill="#ffffff" fill-opacity="1"><g transform="translate(563.813925, 523.978069)"><g><path d="M 1 0 L 14.078125 0 L 14.078125 -20.765625 L 29.265625 0 L 46.359375 0 L 46.359375 -35.203125 L 33.28125 -35.203125 L 33.28125 -14.4375 L 18.09375 -35.203125 L 1 -35.203125 Z M 1 0 "/></g></g></g><g fill="#ffffff" fill-opacity="1"><g transform="translate(611.144136, 523.978069)"><g><path d="M 22.625 0.5 C 38.0625 0.5 44.75 -5.4375 44.75 -17.65625 C 44.75 -29.8125 38.0625 -35.703125 22.625 -35.703125 C 7.140625 -35.703125 0.5 -29.859375 0.5 -17.65625 C 0.5 -5.375 7.140625 0.5 22.625 0.5 Z M 22.625 -10.5625 C 14.9375 -10.5625 13.578125 -13.875 13.578125 -17.65625 C 13.578125 -21.375 14.890625 -24.640625 22.625 -24.640625 C 30.375 -24.640625 31.671875 -21.3125 31.671875 -17.65625 C 31.671875 -13.921875 30.3125 -10.5625 22.625 -10.5625 Z M 22.625 -10.5625 "/></g></g></g><g fill="#ffffff" fill-opacity="1"><g transform="translate(656.364103, 523.978069)"><g><path d="M 15.59375 0 L 28.65625 0 L 28.65625 -24.140625 L 43.75 -24.140625 L 43.75 -35.203125 L 0.5 -35.203125 L 0.5 -24.140625 L 15.59375 -24.140625 Z M 15.59375 0 "/></g></g></g><g fill="#ffffff" fill-opacity="1"><g transform="translate(700.579174, 523.978069)"><g/></g></g><g fill="#ffffff" fill-opacity="1"><g transform="translate(720.676914, 523.978069)"><g><path d="M 1 0 L 14.078125 0 L 14.078125 -9.296875 L 35.203125 -9.296875 L 35.203125 -20.359375 L 14.078125 -20.359375 L 14.078125 -24.140625 L 38.21875 -24.140625 L 38.21875 -35.203125 L 1 -35.203125 Z M 1 0 "/></g></g></g><g fill="#ffffff" fill-opacity="1"><g transform="translate(759.3651, 523.978069)"><g><path d="M 22.625 0.5 C 38.0625 0.5 44.75 -5.4375 44.75 -17.65625 C 44.75 -29.8125 38.0625 -35.703125 22.625 -35.703125 C 7.140625 -35.703125 0.5 -29.859375 0.5 -17.65625 C 0.5 -5.375 7.140625 0.5 22.625 0.5 Z M 22.625 -10.5625 C 14.9375 -10.5625 13.578125 -13.875 13.578125 -17.65625 C 13.578125 -21.375 14.890625 -24.640625 22.625 -24.640625 C 30.375 -24.640625 31.671875 -21.3125 31.671875 -17.65625 C 31.671875 -13.921875 30.3125 -10.5625 22.625 -10.5625 Z M 22.625 -10.5625 "/></g></g></g><g fill="#ffffff" fill-opacity="1"><g transform="translate(804.585068, 523.978069)"><g><path d="M 23.125 0.5 C 38.5625 0.5 45.25 -5.4375 45.25 -17.65625 L 45.25 -35.203125 L 32.1875 -35.203125 L 32.1875 -17.65625 C 32.1875 -13.921875 30.828125 -10.5625 23.125 -10.5625 C 15.4375 -10.5625 14.078125 -13.875 14.078125 -17.65625 L 14.078125 -35.203125 L 1 -35.203125 L 1 -17.65625 C 1 -5.375 7.640625 0.5 23.125 0.5 Z M 23.125 0.5 "/></g></g></g><g fill="#ffffff" fill-opacity="1"><g transform="translate(850.809881, 523.978069)"><g><path d="M 1 0 L 14.078125 0 L 14.078125 -20.765625 L 29.265625 0 L 46.359375 0 L 46.359375 -35.203125 L 33.28125 -35.203125 L 33.28125 -14.4375 L 18.09375 -35.203125 L 1 -35.203125 Z M 1 0 "/></g></g></g><g fill="#ffffff" fill-opacity="1"><g transform="translate(898.140091, 523.978069)"><g><path d="M 1 0 L 27.15625 0 C 35.65625 0 43.640625 -5.625 43.640625 -17.59375 C 43.640625 -29.5625 35.65625 -35.203125 27.15625 -35.203125 L 1 -35.203125 Z M 14.078125 -11.0625 L 14.078125 -24.140625 L 23.125 -24.140625 C 25.9375 -24.140625 30.578125 -24.140625 30.578125 -17.59375 C 30.578125 -11.0625 25.9375 -11.0625 23.125 -11.0625 Z M 14.078125 -11.0625 "/></g></g></g><g fill="#ffffff" fill-opacity="1"><g transform="translate(942.254661, 523.978069)"><g><path d="M 1 0 L 13.078125 0 L 13.078125 -9.046875 L 1 -9.046875 Z M 1 0 "/></g></g></g><g fill="#ffffff" fill-opacity="1"><g transform="translate(956.323069, 523.978069)"><g/></g></g><g fill="#ffffff" fill-opacity="1"><g transform="translate(976.420809, 523.978069)"><g><path d="M 23.828125 0 L 36.90625 0 L 36.90625 -4.015625 L 41.9375 -4.015625 L 41.9375 -15.078125 L 36.90625 -15.078125 L 36.90625 -35.203125 L 23.828125 -35.203125 L 1 -15.078125 L 1 -4.015625 L 23.828125 -4.015625 Z M 13.078125 -15.078125 L 23.828125 -24.140625 L 23.828125 -15.078125 Z M 13.078125 -15.078125 "/></g></g></g><g fill="#ffffff" fill-opacity="1"><g transform="translate(1019.329533, 523.978069)"><g><path d="M 21.125 0.5 C 35.046875 0.5 41.734375 -5.4375 41.734375 -17.65625 C 41.734375 -29.8125 35.046875 -35.703125 21.125 -35.703125 C 7.140625 -35.703125 0.5 -29.859375 0.5 -17.65625 C 0.5 -5.375 7.140625 0.5 21.125 0.5 Z M 21.125 -10.5625 C 14.9375 -10.5625 13.578125 -13.875 13.578125 -17.65625 C 13.578125 -21.375 14.890625 -24.640625 21.125 -24.640625 C 27.359375 -24.640625 28.65625 -21.3125 28.65625 -17.65625 C 28.65625 -13.921875 27.296875 -10.5625 21.125 -10.5625 Z M 21.125 -10.5625 "/></g></g></g><g fill="#ffffff" fill-opacity="1"><g transform="translate(1061.534808, 523.978069)"><g><path d="M 23.828125 0 L 36.90625 0 L 36.90625 -4.015625 L 41.9375 -4.015625 L 41.9375 -15.078125 L 36.90625 -15.078125 L 36.90625 -35.203125 L 23.828125 -35.203125 L 1 -15.078125 L 1 -4.015625 L 23.828125 -4.015625 Z M 13.078125 -15.078125 L 23.828125 -24.140625 L 23.828125 -15.078125 Z M 13.078125 -15.078125 "/></g></g></g></svg>