<svg xmlns="http://www.w3.org/2000/svg" xmlns:xlink="http://www.w3.org/1999/xlink" zoomAndPan="magnify" preserveAspectRatio="xMidYMid meet" version="1.0" viewBox="77.72 143.5 265.87 98"><defs><g/><clipPath id="2748f2098e"><path d="M 211 143 L 344 143 L 344 242 L 211 242 Z M 211 143 " clip-rule="nonzero"/></clipPath><clipPath id="26454cf8aa"><path d="M 204.75 157.800781 L 333.765625 126.53125 L 356.203125 219.101562 L 227.1875 250.371094 Z M 204.75 157.800781 " clip-rule="nonzero"/></clipPath><clipPath id="7301b69ec7"><path d="M 204.75 157.800781 L 333.765625 126.53125 L 356.203125 219.101562 L 227.1875 250.371094 Z M 204.75 157.800781 " clip-rule="nonzero"/></clipPath><clipPath id="f4af332ecd"><path d="M 77.71875 179.046875 L 96.46875 179.046875 L 96.46875 197.796875 L 77.71875 197.796875 Z M 77.71875 179.046875 " clip-rule="nonzero"/></clipPath></defs><g clip-path="url(#2748f2098e)"><g clip-path="url(#26454cf8aa)"><g clip-path="url(#7301b69ec7)"><path fill="#e11d48" d="M 341.257812 170.273438 C 341.738281 172.097656 342.75 173.183594 343.578125 173.796875 C 342.328125 175.492188 341.070312 177.175781 339.804688 178.855469 C 338.425781 177.820312 336.1875 175.621094 335.207031 171.914062 C 332.886719 175.023438 330.535156 178.109375 328.15625 181.175781 C 325.441406 184.675781 322.6875 188.148438 319.890625 191.589844 C 317.09375 195.03125 314.253906 198.441406 311.363281 201.808594 C 308.46875 205.179688 305.523438 208.507812 302.503906 211.78125 C 299.484375 215.054688 296.394531 218.273438 293.195312 221.402344 C 289.996094 224.53125 286.6875 227.574219 283.183594 230.453125 C 279.671875 233.316406 275.992188 236.054688 271.804688 238.304688 C 269.699219 239.414062 267.457031 240.40625 264.929688 241.023438 C 263.660156 241.316406 262.3125 241.515625 260.882812 241.496094 C 260.167969 241.488281 259.433594 241.410156 258.699219 241.277344 C 257.960938 241.132812 257.226562 240.917969 256.507812 240.628906 C 255.796875 240.328125 255.109375 239.957031 254.476562 239.523438 C 253.898438 239.078125 253.316406 238.667969 252.804688 238.132812 C 252.261719 237.644531 251.808594 237.054688 251.355469 236.480469 C 251.152344 236.171875 250.953125 235.867188 250.757812 235.554688 C 250.65625 235.402344 250.570312 235.242188 250.492188 235.082031 L 250.246094 234.597656 C 249.617188 233.300781 249.195312 231.9375 248.988281 230.617188 L 248.898438 230.117188 L 248.847656 229.628906 C 248.8125 229.300781 248.773438 228.972656 248.75 228.648438 C 248.730469 228.007812 248.683594 227.355469 248.714844 226.730469 C 248.769531 224.210938 249.160156 221.828125 249.695312 219.539062 C 250.234375 217.25 250.910156 215.042969 251.65625 212.886719 C 253.15625 208.570312 254.921875 204.441406 256.761719 200.378906 C 258.601562 196.316406 260.523438 192.324219 262.425781 188.351562 C 264.328125 184.378906 266.214844 180.425781 267.972656 176.453125 C 269.714844 172.480469 271.359375 168.484375 272.542969 164.480469 C 273.128906 162.484375 273.589844 160.488281 273.8125 158.566406 L 273.871094 157.855469 L 273.902344 157.503906 L 273.910156 157.15625 C 273.914062 156.929688 273.925781 156.695312 273.921875 156.472656 L 273.894531 155.8125 C 273.832031 154.949219 273.6875 154.144531 273.441406 153.464844 C 273.179688 152.792969 272.835938 152.246094 272.386719 151.78125 C 272.269531 151.667969 272.167969 151.539062 272.023438 151.445312 L 271.824219 151.289062 C 271.757812 151.238281 271.703125 151.179688 271.613281 151.128906 C 271.445312 151.03125 271.28125 150.925781 271.117188 150.820312 L 270.597656 150.558594 C 269.894531 150.230469 269.132812 150.007812 268.316406 149.882812 C 267.5 149.75 266.621094 149.753906 265.722656 149.820312 C 263.917969 149.953125 262.015625 150.464844 260.140625 151.144531 C 258.257812 151.84375 256.390625 152.730469 254.558594 153.726562 C 250.890625 155.734375 247.363281 158.164062 243.945312 160.765625 C 240.53125 163.375 237.226562 166.175781 234.011719 169.089844 C 230.800781 172.003906 227.667969 175.027344 224.617188 178.136719 C 223.089844 179.6875 221.585938 181.261719 220.101562 182.855469 C 219.359375 183.648438 218.621094 184.449219 217.890625 185.253906 C 217.167969 186.054688 216.429688 186.878906 215.75 187.664062 L 211 183.582031 C 211.761719 182.699219 212.496094 181.882812 213.25 181.046875 C 214 180.21875 214.757812 179.398438 215.519531 178.582031 C 217.042969 176.949219 218.585938 175.335938 220.148438 173.746094 C 223.277344 170.5625 226.492188 167.457031 229.808594 164.449219 C 233.125 161.441406 236.554688 158.53125 240.144531 155.789062 C 243.738281 153.050781 247.488281 150.457031 251.558594 148.226562 C 253.601562 147.117188 255.722656 146.101562 257.976562 145.265625 C 260.238281 144.449219 262.628906 143.78125 265.226562 143.574219 C 266.523438 143.480469 267.863281 143.472656 269.230469 143.683594 C 270.59375 143.890625 271.964844 144.285156 273.261719 144.886719 C 273.582031 145.046875 273.902344 145.203125 274.214844 145.375 L 275.121094 145.941406 C 275.269531 146.03125 275.425781 146.15625 275.574219 146.273438 L 276.023438 146.625 C 276.332031 146.851562 276.601562 147.136719 276.875 147.414062 C 277.960938 148.523438 278.792969 149.890625 279.3125 151.285156 C 279.820312 152.679688 280.046875 154.066406 280.144531 155.402344 L 280.1875 156.390625 C 280.1875 156.71875 280.175781 157.035156 280.171875 157.359375 L 280.15625 157.839844 L 280.121094 158.308594 L 280.039062 159.246094 C 279.753906 161.707031 279.203125 164.019531 278.550781 166.25 C 277.230469 170.707031 275.5 174.878906 273.703125 178.980469 C 271.894531 183.074219 269.980469 187.078125 268.074219 191.058594 C 266.167969 195.035156 264.265625 198.992188 262.46875 202.960938 C 260.671875 206.929688 258.96875 210.917969 257.574219 214.933594 C 256.878906 216.941406 256.265625 218.957031 255.796875 220.960938 C 255.324219 222.960938 255.015625 224.957031 254.976562 226.847656 C 254.949219 227.324219 254.992188 227.773438 255 228.234375 C 255.015625 228.460938 255.046875 228.679688 255.066406 228.898438 L 255.101562 229.230469 L 255.160156 229.546875 C 255.289062 230.402344 255.550781 231.164062 255.875 231.851562 L 256.003906 232.105469 C 256.042969 232.191406 256.082031 232.277344 256.140625 232.351562 C 256.242188 232.503906 256.339844 232.660156 256.4375 232.816406 C 256.675781 233.09375 256.882812 233.398438 257.167969 233.640625 C 257.410156 233.914062 257.75 234.125 258.035156 234.367188 C 258.3125 234.554688 258.597656 234.707031 258.898438 234.839844 C 259.207031 234.960938 259.53125 235.054688 259.875 235.125 C 260.226562 235.183594 260.589844 235.230469 260.980469 235.234375 C 261.753906 235.242188 262.605469 235.132812 263.484375 234.925781 C 265.242188 234.503906 267.078125 233.722656 268.867188 232.769531 C 272.457031 230.851562 275.902344 228.316406 279.210938 225.609375 C 282.523438 222.890625 285.710938 219.957031 288.816406 216.921875 C 291.921875 213.886719 294.941406 210.742188 297.902344 207.535156 C 300.859375 204.324219 303.757812 201.050781 306.609375 197.730469 C 309.460938 194.40625 312.265625 191.042969 315.027344 187.640625 C 317.792969 184.238281 320.519531 180.800781 323.207031 177.335938 C 325.5625 174.300781 327.890625 171.242188 330.1875 168.164062 C 326.371094 168.253906 323.652344 166.675781 322.277344 165.640625 C 323.5 164.019531 324.714844 162.390625 325.917969 160.761719 C 326.75 161.371094 328.082031 162.027344 329.949219 161.964844 C 331.808594 161.90625 334.234375 161.113281 337.160156 158.839844 L 342.074219 162.304688 C 340.820312 165.902344 340.777344 168.441406 341.257812 170.273438 Z M 341.257812 170.273438 " fill-opacity="1" fill-rule="nonzero"/></g></g></g><g clip-path="url(#f4af332ecd)"><path fill="#e11d48" d="M 96.402344 185.847656 L 96.402344 190.976562 C 90.191406 192.792969 89.261719 196.015625 89.261719 197.773438 L 83.917969 197.773438 C 83.917969 196.304688 84.257812 193.648438 86.296875 191.082031 L 77.722656 191.082031 L 77.722656 185.738281 L 86.296875 185.738281 C 84.257812 183.175781 83.917969 180.515625 83.917969 179.046875 L 89.261719 179.046875 C 89.261719 180.804688 90.191406 184.03125 96.402344 185.847656 Z M 96.402344 185.847656 " fill-opacity="1" fill-rule="nonzero"/></g><g fill="#000000" fill-opacity="1"><g transform="translate(109.280066, 196.719112)"><g><path d="M 11.53125 0.25 C 18.734375 0.25 22.453125 -2.28125 22.734375 -7.96875 L 15.90625 -7.96875 C 15.65625 -6.25 14.34375 -5.375 11.53125 -5.375 C 7.609375 -5.375 6.921875 -7.078125 6.921875 -9 C 6.921875 -10.890625 7.578125 -12.5625 11.53125 -12.5625 C 14.34375 -12.5625 15.65625 -11.703125 15.90625 -10.015625 L 22.734375 -10.015625 C 22.453125 -15.6875 18.703125 -18.1875 11.53125 -18.1875 C 3.640625 -18.1875 0.25 -15.21875 0.25 -9 C 0.25 -2.734375 3.640625 0.25 11.53125 0.25 Z M 11.53125 0.25 "/></g></g></g><g fill="#000000" fill-opacity="1"><g transform="translate(132.258725, 196.719112)"><g><path d="M 0.515625 0 L 7.171875 0 L 7.171875 -6.15625 L 17.6875 -6.15625 L 17.6875 0 L 24.34375 0 L 24.34375 -17.9375 L 17.6875 -17.9375 L 17.6875 -11.78125 L 7.171875 -11.78125 L 7.171875 -17.9375 L 0.515625 -17.9375 Z M 0.515625 0 "/></g></g></g><g fill="#000000" fill-opacity="1"><g transform="translate(157.107452, 196.719112)"><g><path d="M 0.25 0 L 7.578125 0 L 8.8125 -3.234375 L 16.453125 -3.234375 L 17.6875 0 L 25.015625 0 L 17.578125 -17.9375 L 7.6875 -17.9375 Z M 10.5625 -7.84375 L 12.640625 -13.328125 L 14.703125 -7.84375 Z M 10.5625 -7.84375 "/></g></g></g><g fill="#000000" fill-opacity="1"><g transform="translate(182.366049, 196.719112)"><g><path d="M 0.515625 0 L 7.171875 0 L 7.171875 -17.9375 L 0.515625 -17.9375 Z M 0.515625 0 "/></g></g></g><g fill="#000000" fill-opacity="1"><g transform="translate(190.051225, 196.719112)"><g/></g></g><g fill="#000000" fill-opacity="1"><g transform="translate(200.298127, 196.719112)"><g><path d="M 11.703125 0.25 C 19.0625 0.25 23.171875 -1 23.171875 -5.9375 C 23.171875 -10.640625 18.78125 -11.125 11.703125 -11.40625 C 7.8125 -11.5625 7.171875 -11.53125 7.171875 -12.21875 C 7.171875 -12.921875 7.8125 -13.0625 10.9375 -13.0625 C 14.203125 -13.0625 15.734375 -12.859375 15.734375 -11.921875 L 22.390625 -11.921875 C 22.390625 -16.5 18.453125 -18.1875 11.453125 -18.1875 C 4.375 -18.1875 0.515625 -16.5 0.515625 -12.5625 C 0.515625 -8.375 3.609375 -7.046875 11.703125 -6.796875 C 15.90625 -6.65625 16.5 -6.5625 16.5 -5.796875 C 16.5 -5.125 15.90625 -4.875 11.96875 -4.875 C 7.734375 -4.875 6.921875 -5.453125 6.921875 -6.328125 L 0.25 -6.328125 C 0.25 -1 4.359375 0.25 11.703125 0.25 Z M 11.703125 0.25 "/></g></g></g><g fill="#000000" fill-opacity="1"><g transform="translate(223.712279, 196.719112)"><g><path d="M 7.9375 0 L 14.609375 0 L 14.609375 -12.296875 L 22.296875 -12.296875 L 22.296875 -17.9375 L 0.25 -17.9375 L 0.25 -12.296875 L 7.9375 -12.296875 Z M 7.9375 0 "/></g></g></g><g fill="#000000" fill-opacity="1"><g transform="translate(246.255456, 196.719112)"><g><path d="M 11.53125 0.25 C 19.390625 0.25 22.8125 -2.765625 22.8125 -9 C 22.8125 -15.203125 19.390625 -18.1875 11.53125 -18.1875 C 3.640625 -18.1875 0.25 -15.21875 0.25 -9 C 0.25 -2.734375 3.640625 0.25 11.53125 0.25 Z M 11.53125 -5.375 C 7.609375 -5.375 6.921875 -7.078125 6.921875 -9 C 6.921875 -10.890625 7.578125 -12.5625 11.53125 -12.5625 C 15.484375 -12.5625 16.140625 -10.859375 16.140625 -9 C 16.140625 -7.09375 15.453125 -5.375 11.53125 -5.375 Z M 11.53125 -5.375 "/></g></g></g><g fill="#000000" fill-opacity="1"><g transform="translate(269.310973, 196.719112)"><g><path d="M 0.515625 0 L 7.171875 0 L 7.171875 -4.203125 L 11.09375 -4.203125 L 13.578125 0 L 21.46875 0 L 18.296875 -5.15625 C 20.265625 -6.296875 21.46875 -8.453125 21.46875 -11.0625 C 21.46875 -15.0625 18.6875 -17.9375 14.609375 -17.9375 L 0.515625 -17.9375 Z M 7.171875 -9.84375 L 7.171875 -12.296875 L 13.328125 -12.296875 C 13.984375 -12.296875 14.8125 -12.296875 14.8125 -11.0625 C 14.8125 -9.84375 13.984375 -9.84375 13.328125 -9.84375 Z M 7.171875 -9.84375 "/></g></g></g><g fill="#000000" fill-opacity="1"><g transform="translate(291.034399, 196.719112)"><g><path d="M 9.375 0 L 16.046875 0 L 16.046875 -5.890625 L 25.15625 -17.9375 L 17.46875 -17.9375 L 12.703125 -11.28125 L 7.9375 -17.9375 L 0.25 -17.9375 L 9.375 -5.890625 Z M 9.375 0 "/></g></g></g><g fill="#000000" fill-opacity="1"><g transform="translate(109.280066, 211.387018)"><g><path d="M 4 0 L 6.84375 0 L 6.84375 -2.515625 L 10.734375 -7.65625 L 7.453125 -7.65625 L 5.421875 -4.8125 L 3.390625 -7.65625 L 0.109375 -7.65625 L 4 -2.515625 Z M 4 0 "/></g></g></g><g fill="#000000" fill-opacity="1"><g transform="translate(120.126181, 211.387018)"><g><path d="M 4.921875 0.109375 C 8.28125 0.109375 9.734375 -1.1875 9.734375 -3.84375 C 9.734375 -6.484375 8.28125 -7.765625 4.921875 -7.765625 C 1.546875 -7.765625 0.109375 -6.5 0.109375 -3.84375 C 0.109375 -1.171875 1.546875 0.109375 4.921875 0.109375 Z M 4.921875 -2.296875 C 3.25 -2.296875 2.953125 -3.015625 2.953125 -3.84375 C 2.953125 -4.640625 3.234375 -5.359375 4.921875 -5.359375 C 6.609375 -5.359375 6.890625 -4.640625 6.890625 -3.84375 C 6.890625 -3.03125 6.59375 -2.296875 4.921875 -2.296875 Z M 4.921875 -2.296875 "/></g></g></g><g fill="#000000" fill-opacity="1"><g transform="translate(129.966405, 211.387018)"><g><path d="M 5.03125 0.109375 C 8.390625 0.109375 9.84375 -1.1875 9.84375 -3.84375 L 9.84375 -7.65625 L 7 -7.65625 L 7 -3.84375 C 7 -3.03125 6.703125 -2.296875 5.03125 -2.296875 C 3.359375 -2.296875 3.0625 -3.015625 3.0625 -3.84375 L 3.0625 -7.65625 L 0.21875 -7.65625 L 0.21875 -3.84375 C 0.21875 -1.171875 1.65625 0.109375 5.03125 0.109375 Z M 5.03125 0.109375 "/></g></g></g><g fill="#000000" fill-opacity="1"><g transform="translate(140.025292, 211.387018)"><g><path d="M 0.21875 0 L 3.0625 0 L 3.0625 -1.796875 L 4.734375 -1.796875 L 5.796875 0 L 9.171875 0 L 7.8125 -2.203125 C 8.65625 -2.6875 9.171875 -3.609375 9.171875 -4.71875 C 9.171875 -6.4375 7.96875 -7.65625 6.234375 -7.65625 L 0.21875 -7.65625 Z M 3.0625 -4.203125 L 3.0625 -5.25 L 5.6875 -5.25 C 5.96875 -5.25 6.328125 -5.25 6.328125 -4.71875 C 6.328125 -4.203125 5.96875 -4.203125 5.6875 -4.203125 Z M 3.0625 -4.203125 "/></g></g></g><g fill="#000000" fill-opacity="1"><g transform="translate(149.296963, 211.387018)"><g/></g></g><g fill="#000000" fill-opacity="1"><g transform="translate(153.670391, 211.387018)"><g><path d="M 5 0.109375 C 8.140625 0.109375 9.890625 -0.421875 9.890625 -2.53125 C 9.890625 -4.53125 8.015625 -4.75 5 -4.859375 C 3.328125 -4.9375 3.0625 -4.921875 3.0625 -5.21875 C 3.0625 -5.515625 3.328125 -5.578125 4.671875 -5.578125 C 6.0625 -5.578125 6.71875 -5.484375 6.71875 -5.078125 L 9.5625 -5.078125 C 9.5625 -7.046875 7.875 -7.765625 4.890625 -7.765625 C 1.875 -7.765625 0.21875 -7.046875 0.21875 -5.359375 C 0.21875 -3.578125 1.546875 -3 5 -2.890625 C 6.796875 -2.84375 7.046875 -2.796875 7.046875 -2.46875 C 7.046875 -2.1875 6.796875 -2.078125 5.109375 -2.078125 C 3.296875 -2.078125 2.953125 -2.328125 2.953125 -2.703125 L 0.109375 -2.703125 C 0.109375 -0.421875 1.859375 0.109375 5 0.109375 Z M 5 0.109375 "/></g></g></g><g fill="#000000" fill-opacity="1"><g transform="translate(163.66368, 211.387018)"><g><path d="M 3.390625 0 L 6.234375 0 L 6.234375 -5.25 L 9.515625 -5.25 L 9.515625 -7.65625 L 0.109375 -7.65625 L 0.109375 -5.25 L 3.390625 -5.25 Z M 3.390625 0 "/></g></g></g><g fill="#000000" fill-opacity="1"><g transform="translate(173.285231, 211.387018)"><g><path d="M 4.921875 0.109375 C 8.28125 0.109375 9.734375 -1.1875 9.734375 -3.84375 C 9.734375 -6.484375 8.28125 -7.765625 4.921875 -7.765625 C 1.546875 -7.765625 0.109375 -6.5 0.109375 -3.84375 C 0.109375 -1.171875 1.546875 0.109375 4.921875 0.109375 Z M 4.921875 -2.296875 C 3.25 -2.296875 2.953125 -3.015625 2.953125 -3.84375 C 2.953125 -4.640625 3.234375 -5.359375 4.921875 -5.359375 C 6.609375 -5.359375 6.890625 -4.640625 6.890625 -3.84375 C 6.890625 -3.03125 6.59375 -2.296875 4.921875 -2.296875 Z M 4.921875 -2.296875 "/></g></g></g><g fill="#000000" fill-opacity="1"><g transform="translate(183.125455, 211.387018)"><g><path d="M 0.21875 0 L 3.0625 0 L 3.0625 -1.796875 L 4.734375 -1.796875 L 5.796875 0 L 9.171875 0 L 7.8125 -2.203125 C 8.65625 -2.6875 9.171875 -3.609375 9.171875 -4.71875 C 9.171875 -6.4375 7.96875 -7.65625 6.234375 -7.65625 L 0.21875 -7.65625 Z M 3.0625 -4.203125 L 3.0625 -5.25 L 5.6875 -5.25 C 5.96875 -5.25 6.328125 -5.25 6.328125 -4.71875 C 6.328125 -4.203125 5.96875 -4.203125 5.6875 -4.203125 Z M 3.0625 -4.203125 "/></g></g></g><g fill="#000000" fill-opacity="1"><g transform="translate(192.397126, 211.387018)"><g><path d="M 4 0 L 6.84375 0 L 6.84375 -2.515625 L 10.734375 -7.65625 L 7.453125 -7.65625 L 5.421875 -4.8125 L 3.390625 -7.65625 L 0.109375 -7.65625 L 4 -2.515625 Z M 4 0 "/></g></g></g><g fill="#000000" fill-opacity="1"><g transform="translate(203.243241, 211.387018)"><g><path d="M 0.4375 2.40625 L 1.609375 2.40625 L 2.84375 0 L 2.84375 -1.96875 L 0.21875 -1.96875 L 0.21875 0 L 1.1875 0 Z M 0.4375 2.40625 "/></g></g></g><g fill="#000000" fill-opacity="1"><g transform="translate(206.304638, 211.387018)"><g/></g></g><g fill="#000000" fill-opacity="1"><g transform="translate(210.678066, 211.387018)"><g><path d="M 4 0 L 6.84375 0 L 6.84375 -2.515625 L 10.734375 -7.65625 L 7.453125 -7.65625 L 5.421875 -4.8125 L 3.390625 -7.65625 L 0.109375 -7.65625 L 4 -2.515625 Z M 4 0 "/></g></g></g><g fill="#000000" fill-opacity="1"><g transform="translate(221.52418, 211.387018)"><g><path d="M 4.921875 0.109375 C 8.28125 0.109375 9.734375 -1.1875 9.734375 -3.84375 C 9.734375 -6.484375 8.28125 -7.765625 4.921875 -7.765625 C 1.546875 -7.765625 0.109375 -6.5 0.109375 -3.84375 C 0.109375 -1.171875 1.546875 0.109375 4.921875 0.109375 Z M 4.921875 -2.296875 C 3.25 -2.296875 2.953125 -3.015625 2.953125 -3.84375 C 2.953125 -4.640625 3.234375 -5.359375 4.921875 -5.359375 C 6.609375 -5.359375 6.890625 -4.640625 6.890625 -3.84375 C 6.890625 -3.03125 6.59375 -2.296875 4.921875 -2.296875 Z M 4.921875 -2.296875 "/></g></g></g><g fill="#000000" fill-opacity="1"><g transform="translate(231.364405, 211.387018)"><g><path d="M 5.03125 0.109375 C 8.390625 0.109375 9.84375 -1.1875 9.84375 -3.84375 L 9.84375 -7.65625 L 7 -7.65625 L 7 -3.84375 C 7 -3.03125 6.703125 -2.296875 5.03125 -2.296875 C 3.359375 -2.296875 3.0625 -3.015625 3.0625 -3.84375 L 3.0625 -7.65625 L 0.21875 -7.65625 L 0.21875 -3.84375 C 0.21875 -1.171875 1.65625 0.109375 5.03125 0.109375 Z M 5.03125 0.109375 "/></g></g></g><g fill="#000000" fill-opacity="1"><g transform="translate(241.423292, 211.387018)"><g><path d="M 0.21875 0 L 3.0625 0 L 3.0625 -1.796875 L 4.734375 -1.796875 L 5.796875 0 L 9.171875 0 L 7.8125 -2.203125 C 8.65625 -2.6875 9.171875 -3.609375 9.171875 -4.71875 C 9.171875 -6.4375 7.96875 -7.65625 6.234375 -7.65625 L 0.21875 -7.65625 Z M 3.0625 -4.203125 L 3.0625 -5.25 L 5.6875 -5.25 C 5.96875 -5.25 6.328125 -5.25 6.328125 -4.71875 C 6.328125 -4.203125 5.96875 -4.203125 5.6875 -4.203125 Z M 3.0625 -4.203125 "/></g></g></g><g fill="#000000" fill-opacity="1"><g transform="translate(250.694962, 211.387018)"><g/></g></g><g fill="#000000" fill-opacity="1"><g transform="translate(255.068391, 211.387018)"><g><path d="M 2.625 0 L 6.84375 0 L 8.109375 -4.40625 L 9.359375 0 L 13.578125 0 L 16.09375 -7.65625 L 13.046875 -7.65625 L 11.46875 -2.25 L 9.796875 -7.65625 L 6.40625 -7.65625 L 4.75 -2.25 L 3.15625 -7.65625 L 0.109375 -7.65625 Z M 2.625 0 "/></g></g></g><g fill="#000000" fill-opacity="1"><g transform="translate(271.271953, 211.387018)"><g><path d="M 4.921875 0.109375 C 8.28125 0.109375 9.734375 -1.1875 9.734375 -3.84375 C 9.734375 -6.484375 8.28125 -7.765625 4.921875 -7.765625 C 1.546875 -7.765625 0.109375 -6.5 0.109375 -3.84375 C 0.109375 -1.171875 1.546875 0.109375 4.921875 0.109375 Z M 4.921875 -2.296875 C 3.25 -2.296875 2.953125 -3.015625 2.953125 -3.84375 C 2.953125 -4.640625 3.234375 -5.359375 4.921875 -5.359375 C 6.609375 -5.359375 6.890625 -4.640625 6.890625 -3.84375 C 6.890625 -3.03125 6.59375 -2.296875 4.921875 -2.296875 Z M 4.921875 -2.296875 "/></g></g></g><g fill="#000000" fill-opacity="1"><g transform="translate(281.112178, 211.387018)"><g><path d="M 0.21875 0 L 3.0625 0 L 3.0625 -1.796875 L 4.734375 -1.796875 L 5.796875 0 L 9.171875 0 L 7.8125 -2.203125 C 8.65625 -2.6875 9.171875 -3.609375 9.171875 -4.71875 C 9.171875 -6.4375 7.96875 -7.65625 6.234375 -7.65625 L 0.21875 -7.65625 Z M 3.0625 -4.203125 L 3.0625 -5.25 L 5.6875 -5.25 C 5.96875 -5.25 6.328125 -5.25 6.328125 -4.71875 C 6.328125 -4.203125 5.96875 -4.203125 5.6875 -4.203125 Z M 3.0625 -4.203125 "/></g></g></g><g fill="#000000" fill-opacity="1"><g transform="translate(290.383849, 211.387018)"><g><path d="M 0.21875 0 L 5.90625 0 C 7.75 0 9.5 -1.21875 9.5 -3.828125 C 9.5 -6.4375 7.75 -7.65625 5.90625 -7.65625 L 0.21875 -7.65625 Z M 3.0625 -2.40625 L 3.0625 -5.25 L 5.03125 -5.25 C 5.640625 -5.25 6.65625 -5.25 6.65625 -3.828125 C 6.65625 -2.40625 5.640625 -2.40625 5.03125 -2.40625 Z M 3.0625 -2.40625 "/></g></g></g><g fill="#000000" fill-opacity="1"><g transform="translate(299.98353, 211.387018)"><g><path d="M 5 0.109375 C 8.140625 0.109375 9.890625 -0.421875 9.890625 -2.53125 C 9.890625 -4.53125 8.015625 -4.75 5 -4.859375 C 3.328125 -4.9375 3.0625 -4.921875 3.0625 -5.21875 C 3.0625 -5.515625 3.328125 -5.578125 4.671875 -5.578125 C 6.0625 -5.578125 6.71875 -5.484375 6.71875 -5.078125 L 9.5625 -5.078125 C 9.5625 -7.046875 7.875 -7.765625 4.890625 -7.765625 C 1.875 -7.765625 0.21875 -7.046875 0.21875 -5.359375 C 0.21875 -3.578125 1.546875 -3 5 -2.890625 C 6.796875 -2.84375 7.046875 -2.796875 7.046875 -2.46875 C 7.046875 -2.1875 6.796875 -2.078125 5.109375 -2.078125 C 3.296875 -2.078125 2.953125 -2.328125 2.953125 -2.703125 L 0.109375 -2.703125 C 0.109375 -0.421875 1.859375 0.109375 5 0.109375 Z M 5 0.109375 "/></g></g></g></svg>