<svg xmlns="http://www.w3.org/2000/svg" xmlns:xlink="http://www.w3.org/1999/xlink" zoomAndPan="magnify" preserveAspectRatio="xMidYMid meet" version="1.0" viewBox="77.72 149.3 247.55 98.02"><defs><g/><clipPath id="a4d5b10b08"><path d="M 192 149 L 326 149 L 326 248 L 192 248 Z M 192 149 " clip-rule="nonzero"/></clipPath><clipPath id="7fba26c222"><path d="M 186.429688 163.589844 L 315.445312 132.316406 L 337.882812 224.886719 L 208.867188 256.160156 Z M 186.429688 163.589844 " clip-rule="nonzero"/></clipPath><clipPath id="a34849a7ce"><path d="M 186.429688 163.589844 L 315.445312 132.316406 L 337.882812 224.886719 L 208.867188 256.160156 Z M 186.429688 163.589844 " clip-rule="nonzero"/></clipPath><clipPath id="f1da11b937"><path d="M 77.71875 179.046875 L 96.46875 179.046875 L 96.46875 197.796875 L 77.71875 197.796875 Z M 77.71875 179.046875 " clip-rule="nonzero"/></clipPath></defs><g clip-path="url(#a4d5b10b08)"><g clip-path="url(#7fba26c222)"><g clip-path="url(#a34849a7ce)"><path fill="#e11d48" d="M 322.9375 176.058594 C 323.417969 177.882812 324.429688 178.972656 325.257812 179.585938 C 324.007812 181.28125 322.75 182.964844 321.484375 184.644531 C 320.105469 183.609375 317.867188 181.410156 316.886719 177.703125 C 314.566406 180.8125 312.214844 183.898438 309.835938 186.960938 C 307.121094 190.464844 304.367188 193.9375 301.570312 197.378906 C 298.773438 200.820312 295.933594 204.226562 293.042969 207.597656 C 290.148438 210.96875 287.203125 214.296875 284.183594 217.570312 C 281.164062 220.839844 278.074219 224.058594 274.875 227.1875 C 271.675781 230.316406 268.367188 233.363281 264.863281 236.238281 C 261.351562 239.105469 257.671875 241.84375 253.484375 244.089844 C 251.378906 245.203125 249.136719 246.195312 246.609375 246.808594 C 245.339844 247.105469 243.992188 247.304688 242.5625 247.285156 C 241.847656 247.273438 241.113281 247.199219 240.378906 247.066406 C 239.640625 246.921875 238.90625 246.707031 238.1875 246.417969 C 237.476562 246.113281 236.792969 245.742188 236.15625 245.308594 C 235.578125 244.867188 234.996094 244.457031 234.484375 243.921875 C 233.941406 243.429688 233.488281 242.84375 233.035156 242.265625 C 232.832031 241.960938 232.632812 241.652344 232.4375 241.34375 C 232.335938 241.191406 232.25 241.03125 232.171875 240.871094 L 231.925781 240.382812 C 231.300781 239.085938 230.875 237.726562 230.667969 236.40625 L 230.578125 235.90625 L 230.527344 235.414062 C 230.492188 235.089844 230.453125 234.757812 230.429688 234.433594 C 230.410156 233.796875 230.363281 233.144531 230.394531 232.519531 C 230.449219 230 230.839844 227.613281 231.375 225.328125 C 231.914062 223.039062 232.589844 220.832031 233.335938 218.671875 C 234.835938 214.359375 236.601562 210.230469 238.441406 206.164062 C 240.28125 202.101562 242.203125 198.113281 244.105469 194.140625 C 246.007812 190.167969 247.894531 186.210938 249.652344 182.238281 C 251.394531 178.269531 253.039062 174.269531 254.222656 170.269531 C 254.808594 168.273438 255.269531 166.277344 255.492188 164.355469 L 255.550781 163.644531 L 255.582031 163.289062 L 255.589844 162.945312 C 255.59375 162.71875 255.605469 162.484375 255.601562 162.257812 L 255.574219 161.597656 C 255.511719 160.738281 255.367188 159.933594 255.121094 159.25 C 254.859375 158.582031 254.515625 158.035156 254.066406 157.570312 C 253.949219 157.457031 253.847656 157.328125 253.703125 157.234375 L 253.503906 157.078125 C 253.4375 157.023438 253.382812 156.96875 253.292969 156.917969 C 253.125 156.816406 252.960938 156.714844 252.796875 156.605469 L 252.277344 156.34375 C 251.574219 156.019531 250.8125 155.796875 249.996094 155.667969 C 249.179688 155.539062 248.300781 155.542969 247.402344 155.605469 C 245.597656 155.742188 243.695312 156.253906 241.820312 156.933594 C 239.9375 157.632812 238.070312 158.519531 236.238281 159.511719 C 232.570312 161.519531 229.042969 163.949219 225.625 166.554688 C 222.210938 169.164062 218.90625 171.964844 215.691406 174.878906 C 212.480469 177.792969 209.347656 180.816406 206.296875 183.925781 C 204.769531 185.476562 203.265625 187.050781 201.78125 188.640625 C 201.039062 189.4375 200.300781 190.238281 199.574219 191.042969 C 198.847656 191.84375 198.109375 192.667969 197.429688 193.453125 L 192.679688 189.367188 C 193.441406 188.488281 194.175781 187.671875 194.929688 186.835938 C 195.679688 186.007812 196.4375 185.1875 197.199219 184.371094 C 198.722656 182.738281 200.265625 181.125 201.828125 179.535156 C 204.957031 176.347656 208.171875 173.246094 211.488281 170.234375 C 214.804688 167.230469 218.234375 164.320312 221.824219 161.574219 C 225.417969 158.835938 229.167969 156.246094 233.238281 154.015625 C 235.28125 152.90625 237.402344 151.890625 239.65625 151.054688 C 241.917969 150.238281 244.308594 149.566406 246.90625 149.363281 C 248.203125 149.269531 249.542969 149.261719 250.910156 149.472656 C 252.273438 149.679688 253.644531 150.070312 254.941406 150.675781 C 255.261719 150.835938 255.582031 150.992188 255.894531 151.164062 L 256.800781 151.730469 C 256.949219 151.816406 257.105469 151.945312 257.253906 152.058594 L 257.703125 152.414062 C 258.011719 152.640625 258.28125 152.925781 258.554688 153.199219 C 259.640625 154.3125 260.472656 155.679688 260.992188 157.070312 C 261.5 158.46875 261.726562 159.855469 261.824219 161.1875 L 261.867188 162.179688 C 261.867188 162.503906 261.855469 162.824219 261.851562 163.144531 L 261.835938 163.628906 L 261.800781 164.097656 L 261.71875 165.035156 C 261.433594 167.496094 260.886719 169.804688 260.230469 172.039062 C 258.910156 176.496094 257.179688 180.667969 255.382812 184.769531 C 253.574219 188.863281 251.660156 192.863281 249.753906 196.84375 C 247.847656 200.824219 245.945312 204.777344 244.148438 208.75 C 242.351562 212.71875 240.648438 216.707031 239.253906 220.722656 C 238.558594 222.730469 237.945312 224.746094 237.476562 226.75 C 237.003906 228.75 236.695312 230.746094 236.65625 232.632812 C 236.628906 233.113281 236.671875 233.5625 236.679688 234.023438 C 236.695312 234.25 236.726562 234.464844 236.746094 234.6875 L 236.78125 235.019531 L 236.839844 235.335938 C 236.96875 236.191406 237.230469 236.953125 237.554688 237.640625 L 237.683594 237.894531 C 237.722656 237.980469 237.765625 238.066406 237.820312 238.136719 C 237.921875 238.292969 238.019531 238.445312 238.117188 238.605469 C 238.355469 238.882812 238.5625 239.1875 238.847656 239.429688 C 239.089844 239.703125 239.429688 239.914062 239.714844 240.15625 C 239.992188 240.339844 240.277344 240.496094 240.578125 240.628906 C 240.886719 240.746094 241.210938 240.84375 241.554688 240.914062 C 241.90625 240.972656 242.269531 241.015625 242.660156 241.019531 C 243.433594 241.03125 244.285156 240.917969 245.164062 240.714844 C 246.921875 240.289062 248.757812 239.507812 250.546875 238.558594 C 254.136719 236.636719 257.582031 234.105469 260.890625 231.398438 C 264.203125 228.675781 267.390625 225.746094 270.496094 222.710938 C 273.601562 219.675781 276.621094 216.53125 279.582031 213.324219 C 282.539062 210.113281 285.4375 206.839844 288.289062 203.515625 C 291.140625 200.195312 293.945312 196.828125 296.707031 193.425781 C 299.472656 190.023438 302.199219 186.589844 304.886719 183.121094 C 307.242188 180.085938 309.570312 177.03125 311.867188 173.953125 C 308.050781 174.042969 305.332031 172.464844 303.957031 171.429688 C 305.179688 169.808594 306.394531 168.179688 307.597656 166.546875 C 308.429688 167.160156 309.761719 167.816406 311.628906 167.753906 C 313.488281 167.695312 315.914062 166.902344 318.839844 164.628906 L 323.753906 168.089844 C 322.5 171.691406 322.457031 174.230469 322.9375 176.058594 Z M 322.9375 176.058594 " fill-opacity="1" fill-rule="nonzero"/></g></g></g><g clip-path="url(#f1da11b937)"><path fill="#e11d48" d="M 96.402344 185.847656 L 96.402344 190.976562 C 90.191406 192.792969 89.261719 196.015625 89.261719 197.773438 L 83.917969 197.773438 C 83.917969 196.304688 84.257812 193.648438 86.296875 191.082031 L 77.722656 191.082031 L 77.722656 185.738281 L 86.296875 185.738281 C 84.257812 183.175781 83.917969 180.515625 83.917969 179.046875 L 89.261719 179.046875 C 89.261719 180.804688 90.191406 184.03125 96.402344 185.847656 Z M 96.402344 185.847656 " fill-opacity="1" fill-rule="nonzero"/></g><g fill="#000000" fill-opacity="1"><g transform="translate(109.280066, 196.719112)"><g><path d="M 0.515625 0 L 7.171875 0 L 7.171875 -8.53125 L 12.0625 0 L 16.421875 0 L 21.3125 -8.53125 L 21.3125 0 L 27.984375 0 L 27.984375 -17.9375 L 19.78125 -17.9375 L 14.25 -7.6875 L 8.71875 -17.9375 L 0.515625 -17.9375 Z M 0.515625 0 "/></g></g></g><g fill="#000000" fill-opacity="1"><g transform="translate(137.766435, 196.719112)"><g><path d="M 0.515625 0 L 7.171875 0 L 7.171875 -17.9375 L 0.515625 -17.9375 Z M 0.515625 0 "/></g></g></g><g fill="#000000" fill-opacity="1"><g transform="translate(145.451611, 196.719112)"><g><path d="M 0.515625 0 L 7.171875 0 L 7.171875 -10.578125 L 14.90625 0 L 23.625 0 L 23.625 -17.9375 L 16.96875 -17.9375 L 16.96875 -7.359375 L 9.21875 -17.9375 L 0.515625 -17.9375 Z M 0.515625 0 "/></g></g></g><g fill="#000000" fill-opacity="1"><g transform="translate(169.583056, 196.719112)"><g><path d="M 0.515625 0 L 19.46875 0 L 19.46875 -5.125 L 7.171875 -5.125 L 7.171875 -6.796875 L 19.46875 -6.796875 L 19.46875 -11.140625 L 7.171875 -11.140625 L 7.171875 -12.8125 L 19.46875 -12.8125 L 19.46875 -17.9375 L 0.515625 -17.9375 Z M 0.515625 0 "/></g></g></g><g fill="#000000" fill-opacity="1"><g transform="translate(189.308331, 196.719112)"><g/></g></g><g fill="#000000" fill-opacity="1"><g transform="translate(199.555233, 196.719112)"><g><path d="M 11.703125 0.25 C 19.0625 0.25 23.171875 -1 23.171875 -5.9375 C 23.171875 -10.640625 18.78125 -11.125 11.703125 -11.40625 C 7.8125 -11.5625 7.171875 -11.53125 7.171875 -12.21875 C 7.171875 -12.921875 7.8125 -13.0625 10.9375 -13.0625 C 14.203125 -13.0625 15.734375 -12.859375 15.734375 -11.921875 L 22.390625 -11.921875 C 22.390625 -16.5 18.453125 -18.1875 11.453125 -18.1875 C 4.375 -18.1875 0.515625 -16.5 0.515625 -12.5625 C 0.515625 -8.375 3.609375 -7.046875 11.703125 -6.796875 C 15.90625 -6.65625 16.5 -6.5625 16.5 -5.796875 C 16.5 -5.125 15.90625 -4.875 11.96875 -4.875 C 7.734375 -4.875 6.921875 -5.453125 6.921875 -6.328125 L 0.25 -6.328125 C 0.25 -1 4.359375 0.25 11.703125 0.25 Z M 11.703125 0.25 "/></g></g></g><g fill="#000000" fill-opacity="1"><g transform="translate(222.969385, 196.719112)"><g><path d="M 7.9375 0 L 14.609375 0 L 14.609375 -12.296875 L 22.296875 -12.296875 L 22.296875 -17.9375 L 0.25 -17.9375 L 0.25 -12.296875 L 7.9375 -12.296875 Z M 7.9375 0 "/></g></g></g><g fill="#000000" fill-opacity="1"><g transform="translate(245.512562, 196.719112)"><g><path d="M 11.53125 0.25 C 19.390625 0.25 22.8125 -2.765625 22.8125 -9 C 22.8125 -15.203125 19.390625 -18.1875 11.53125 -18.1875 C 3.640625 -18.1875 0.25 -15.21875 0.25 -9 C 0.25 -2.734375 3.640625 0.25 11.53125 0.25 Z M 11.53125 -5.375 C 7.609375 -5.375 6.921875 -7.078125 6.921875 -9 C 6.921875 -10.890625 7.578125 -12.5625 11.53125 -12.5625 C 15.484375 -12.5625 16.140625 -10.859375 16.140625 -9 C 16.140625 -7.09375 15.453125 -5.375 11.53125 -5.375 Z M 11.53125 -5.375 "/></g></g></g><g fill="#000000" fill-opacity="1"><g transform="translate(268.56808, 196.719112)"><g><path d="M 0.515625 0 L 7.171875 0 L 7.171875 -4.203125 L 11.09375 -4.203125 L 13.578125 0 L 21.46875 0 L 18.296875 -5.15625 C 20.265625 -6.296875 21.46875 -8.453125 21.46875 -11.0625 C 21.46875 -15.0625 18.6875 -17.9375 14.609375 -17.9375 L 0.515625 -17.9375 Z M 7.171875 -9.84375 L 7.171875 -12.296875 L 13.328125 -12.296875 C 13.984375 -12.296875 14.8125 -12.296875 14.8125 -11.0625 C 14.8125 -9.84375 13.984375 -9.84375 13.328125 -9.84375 Z M 7.171875 -9.84375 "/></g></g></g><g fill="#000000" fill-opacity="1"><g transform="translate(290.291505, 196.719112)"><g><path d="M 9.375 0 L 16.046875 0 L 16.046875 -5.890625 L 25.15625 -17.9375 L 17.46875 -17.9375 L 12.703125 -11.28125 L 7.9375 -17.9375 L 0.25 -17.9375 L 9.375 -5.890625 Z M 9.375 0 "/></g></g></g><g fill="#000000" fill-opacity="1"><g transform="translate(109.280066, 211.387018)"><g><path d="M 5 0.109375 C 8.140625 0.109375 9.890625 -0.421875 9.890625 -2.53125 C 9.890625 -4.53125 8.015625 -4.75 5 -4.859375 C 3.328125 -4.9375 3.0625 -4.921875 3.0625 -5.21875 C 3.0625 -5.515625 3.328125 -5.578125 4.671875 -5.578125 C 6.0625 -5.578125 6.71875 -5.484375 6.71875 -5.078125 L 9.5625 -5.078125 C 9.5625 -7.046875 7.875 -7.765625 4.890625 -7.765625 C 1.875 -7.765625 0.21875 -7.046875 0.21875 -5.359375 C 0.21875 -3.578125 1.546875 -3 5 -2.890625 C 6.796875 -2.84375 7.046875 -2.796875 7.046875 -2.46875 C 7.046875 -2.1875 6.796875 -2.078125 5.109375 -2.078125 C 3.296875 -2.078125 2.953125 -2.328125 2.953125 -2.703125 L 0.109375 -2.703125 C 0.109375 -0.421875 1.859375 0.109375 5 0.109375 Z M 5 0.109375 "/></g></g></g><g fill="#000000" fill-opacity="1"><g transform="translate(119.273355, 211.387018)"><g><path d="M 3.390625 0 L 6.234375 0 L 6.234375 -5.25 L 9.515625 -5.25 L 9.515625 -7.65625 L 0.109375 -7.65625 L 0.109375 -5.25 L 3.390625 -5.25 Z M 3.390625 0 "/></g></g></g><g fill="#000000" fill-opacity="1"><g transform="translate(128.894906, 211.387018)"><g><path d="M 4.921875 0.109375 C 8.28125 0.109375 9.734375 -1.1875 9.734375 -3.84375 C 9.734375 -6.484375 8.28125 -7.765625 4.921875 -7.765625 C 1.546875 -7.765625 0.109375 -6.5 0.109375 -3.84375 C 0.109375 -1.171875 1.546875 0.109375 4.921875 0.109375 Z M 4.921875 -2.296875 C 3.25 -2.296875 2.953125 -3.015625 2.953125 -3.84375 C 2.953125 -4.640625 3.234375 -5.359375 4.921875 -5.359375 C 6.609375 -5.359375 6.890625 -4.640625 6.890625 -3.84375 C 6.890625 -3.03125 6.59375 -2.296875 4.921875 -2.296875 Z M 4.921875 -2.296875 "/></g></g></g><g fill="#000000" fill-opacity="1"><g transform="translate(138.735131, 211.387018)"><g><path d="M 0.21875 0 L 3.0625 0 L 3.0625 -1.796875 L 4.734375 -1.796875 L 5.796875 0 L 9.171875 0 L 7.8125 -2.203125 C 8.65625 -2.6875 9.171875 -3.609375 9.171875 -4.71875 C 9.171875 -6.4375 7.96875 -7.65625 6.234375 -7.65625 L 0.21875 -7.65625 Z M 3.0625 -4.203125 L 3.0625 -5.25 L 5.6875 -5.25 C 5.96875 -5.25 6.328125 -5.25 6.328125 -4.71875 C 6.328125 -4.203125 5.96875 -4.203125 5.6875 -4.203125 Z M 3.0625 -4.203125 "/></g></g></g><g fill="#000000" fill-opacity="1"><g transform="translate(148.006802, 211.387018)"><g><path d="M 0.21875 0 L 3.0625 0 L 3.0625 -7.65625 L 0.21875 -7.65625 Z M 0.21875 0 "/></g></g></g><g fill="#000000" fill-opacity="1"><g transform="translate(151.286873, 211.387018)"><g><path d="M 0.21875 0 L 8.3125 0 L 8.3125 -2.1875 L 3.0625 -2.1875 L 3.0625 -2.890625 L 8.3125 -2.890625 L 8.3125 -4.75 L 3.0625 -4.75 L 3.0625 -5.46875 L 8.3125 -5.46875 L 8.3125 -7.65625 L 0.21875 -7.65625 Z M 0.21875 0 "/></g></g></g><g fill="#000000" fill-opacity="1"><g transform="translate(159.70573, 211.387018)"><g><path d="M 5 0.109375 C 8.140625 0.109375 9.890625 -0.421875 9.890625 -2.53125 C 9.890625 -4.53125 8.015625 -4.75 5 -4.859375 C 3.328125 -4.9375 3.0625 -4.921875 3.0625 -5.21875 C 3.0625 -5.515625 3.328125 -5.578125 4.671875 -5.578125 C 6.0625 -5.578125 6.71875 -5.484375 6.71875 -5.078125 L 9.5625 -5.078125 C 9.5625 -7.046875 7.875 -7.765625 4.890625 -7.765625 C 1.875 -7.765625 0.21875 -7.046875 0.21875 -5.359375 C 0.21875 -3.578125 1.546875 -3 5 -2.890625 C 6.796875 -2.84375 7.046875 -2.796875 7.046875 -2.46875 C 7.046875 -2.1875 6.796875 -2.078125 5.109375 -2.078125 C 3.296875 -2.078125 2.953125 -2.328125 2.953125 -2.703125 L 0.109375 -2.703125 C 0.109375 -0.421875 1.859375 0.109375 5 0.109375 Z M 5 0.109375 "/></g></g></g><g fill="#000000" fill-opacity="1"><g transform="translate(169.699019, 211.387018)"><g/></g></g><g fill="#000000" fill-opacity="1"><g transform="translate(174.072447, 211.387018)"><g><path d="M 4.921875 0.109375 C 8.28125 0.109375 9.734375 -1.1875 9.734375 -3.84375 C 9.734375 -6.484375 8.28125 -7.765625 4.921875 -7.765625 C 1.546875 -7.765625 0.109375 -6.5 0.109375 -3.84375 C 0.109375 -1.171875 1.546875 0.109375 4.921875 0.109375 Z M 4.921875 -2.296875 C 3.25 -2.296875 2.953125 -3.015625 2.953125 -3.84375 C 2.953125 -4.640625 3.234375 -5.359375 4.921875 -5.359375 C 6.609375 -5.359375 6.890625 -4.640625 6.890625 -3.84375 C 6.890625 -3.03125 6.59375 -2.296875 4.921875 -2.296875 Z M 4.921875 -2.296875 "/></g></g></g><g fill="#000000" fill-opacity="1"><g transform="translate(183.912672, 211.387018)"><g><path d="M 0.21875 0 L 3.0625 0 L 3.0625 -2.015625 L 7.65625 -2.015625 L 7.65625 -4.421875 L 3.0625 -4.421875 L 3.0625 -5.25 L 8.3125 -5.25 L 8.3125 -7.65625 L 0.21875 -7.65625 Z M 0.21875 0 "/></g></g></g><g fill="#000000" fill-opacity="1"><g transform="translate(192.331529, 211.387018)"><g/></g></g><g fill="#000000" fill-opacity="1"><g transform="translate(196.704957, 211.387018)"><g><path d="M 4 0 L 6.84375 0 L 6.84375 -2.515625 L 10.734375 -7.65625 L 7.453125 -7.65625 L 5.421875 -4.8125 L 3.390625 -7.65625 L 0.109375 -7.65625 L 4 -2.515625 Z M 4 0 "/></g></g></g><g fill="#000000" fill-opacity="1"><g transform="translate(207.551071, 211.387018)"><g><path d="M 4.921875 0.109375 C 8.28125 0.109375 9.734375 -1.1875 9.734375 -3.84375 C 9.734375 -6.484375 8.28125 -7.765625 4.921875 -7.765625 C 1.546875 -7.765625 0.109375 -6.5 0.109375 -3.84375 C 0.109375 -1.171875 1.546875 0.109375 4.921875 0.109375 Z M 4.921875 -2.296875 C 3.25 -2.296875 2.953125 -3.015625 2.953125 -3.84375 C 2.953125 -4.640625 3.234375 -5.359375 4.921875 -5.359375 C 6.609375 -5.359375 6.890625 -4.640625 6.890625 -3.84375 C 6.890625 -3.03125 6.59375 -2.296875 4.921875 -2.296875 Z M 4.921875 -2.296875 "/></g></g></g><g fill="#000000" fill-opacity="1"><g transform="translate(217.391296, 211.387018)"><g><path d="M 5.03125 0.109375 C 8.390625 0.109375 9.84375 -1.1875 9.84375 -3.84375 L 9.84375 -7.65625 L 7 -7.65625 L 7 -3.84375 C 7 -3.03125 6.703125 -2.296875 5.03125 -2.296875 C 3.359375 -2.296875 3.0625 -3.015625 3.0625 -3.84375 L 3.0625 -7.65625 L 0.21875 -7.65625 L 0.21875 -3.84375 C 0.21875 -1.171875 1.65625 0.109375 5.03125 0.109375 Z M 5.03125 0.109375 "/></g></g></g><g fill="#000000" fill-opacity="1"><g transform="translate(227.450182, 211.387018)"><g><path d="M 0.21875 0 L 3.0625 0 L 3.0625 -1.796875 L 4.734375 -1.796875 L 5.796875 0 L 9.171875 0 L 7.8125 -2.203125 C 8.65625 -2.6875 9.171875 -3.609375 9.171875 -4.71875 C 9.171875 -6.4375 7.96875 -7.65625 6.234375 -7.65625 L 0.21875 -7.65625 Z M 3.0625 -4.203125 L 3.0625 -5.25 L 5.6875 -5.25 C 5.96875 -5.25 6.328125 -5.25 6.328125 -4.71875 C 6.328125 -4.203125 5.96875 -4.203125 5.6875 -4.203125 Z M 3.0625 -4.203125 "/></g></g></g><g fill="#000000" fill-opacity="1"><g transform="translate(236.721853, 211.387018)"><g/></g></g><g fill="#000000" fill-opacity="1"><g transform="translate(241.095281, 211.387018)"><g><path d="M 5 0.109375 C 8.140625 0.109375 9.890625 -0.421875 9.890625 -2.53125 C 9.890625 -4.53125 8.015625 -4.75 5 -4.859375 C 3.328125 -4.9375 3.0625 -4.921875 3.0625 -5.21875 C 3.0625 -5.515625 3.328125 -5.578125 4.671875 -5.578125 C 6.0625 -5.578125 6.71875 -5.484375 6.71875 -5.078125 L 9.5625 -5.078125 C 9.5625 -7.046875 7.875 -7.765625 4.890625 -7.765625 C 1.875 -7.765625 0.21875 -7.046875 0.21875 -5.359375 C 0.21875 -3.578125 1.546875 -3 5 -2.890625 C 6.796875 -2.84375 7.046875 -2.796875 7.046875 -2.46875 C 7.046875 -2.1875 6.796875 -2.078125 5.109375 -2.078125 C 3.296875 -2.078125 2.953125 -2.328125 2.953125 -2.703125 L 0.109375 -2.703125 C 0.109375 -0.421875 1.859375 0.109375 5 0.109375 Z M 5 0.109375 "/></g></g></g><g fill="#000000" fill-opacity="1"><g transform="translate(251.08857, 211.387018)"><g><path d="M 5.03125 0.109375 C 8.390625 0.109375 9.84375 -1.1875 9.84375 -3.84375 L 9.84375 -7.65625 L 7 -7.65625 L 7 -3.84375 C 7 -3.03125 6.703125 -2.296875 5.03125 -2.296875 C 3.359375 -2.296875 3.0625 -3.015625 3.0625 -3.84375 L 3.0625 -7.65625 L 0.21875 -7.65625 L 0.21875 -3.84375 C 0.21875 -1.171875 1.65625 0.109375 5.03125 0.109375 Z M 5.03125 0.109375 "/></g></g></g><g fill="#000000" fill-opacity="1"><g transform="translate(261.147457, 211.387018)"><g><path d="M 4.921875 0.109375 C 8 0.109375 9.578125 -0.96875 9.703125 -3.40625 L 6.796875 -3.40625 C 6.6875 -2.671875 6.125 -2.296875 4.921875 -2.296875 C 3.25 -2.296875 2.953125 -3.015625 2.953125 -3.84375 C 2.953125 -4.640625 3.234375 -5.359375 4.921875 -5.359375 C 6.125 -5.359375 6.6875 -5 6.796875 -4.28125 L 9.703125 -4.28125 C 9.578125 -6.6875 7.984375 -7.765625 4.921875 -7.765625 C 1.546875 -7.765625 0.109375 -6.5 0.109375 -3.84375 C 0.109375 -1.171875 1.546875 0.109375 4.921875 0.109375 Z M 4.921875 0.109375 "/></g></g></g><g fill="#000000" fill-opacity="1"><g transform="translate(270.954872, 211.387018)"><g><path d="M 4.921875 0.109375 C 8 0.109375 9.578125 -0.96875 9.703125 -3.40625 L 6.796875 -3.40625 C 6.6875 -2.671875 6.125 -2.296875 4.921875 -2.296875 C 3.25 -2.296875 2.953125 -3.015625 2.953125 -3.84375 C 2.953125 -4.640625 3.234375 -5.359375 4.921875 -5.359375 C 6.125 -5.359375 6.6875 -5 6.796875 -4.28125 L 9.703125 -4.28125 C 9.578125 -6.6875 7.984375 -7.765625 4.921875 -7.765625 C 1.546875 -7.765625 0.109375 -6.5 0.109375 -3.84375 C 0.109375 -1.171875 1.546875 0.109375 4.921875 0.109375 Z M 4.921875 0.109375 "/></g></g></g><g fill="#000000" fill-opacity="1"><g transform="translate(280.762286, 211.387018)"><g><path d="M 0.21875 0 L 8.3125 0 L 8.3125 -2.1875 L 3.0625 -2.1875 L 3.0625 -2.890625 L 8.3125 -2.890625 L 8.3125 -4.75 L 3.0625 -4.75 L 3.0625 -5.46875 L 8.3125 -5.46875 L 8.3125 -7.65625 L 0.21875 -7.65625 Z M 0.21875 0 "/></g></g></g><g fill="#000000" fill-opacity="1"><g transform="translate(289.181143, 211.387018)"><g><path d="M 5 0.109375 C 8.140625 0.109375 9.890625 -0.421875 9.890625 -2.53125 C 9.890625 -4.53125 8.015625 -4.75 5 -4.859375 C 3.328125 -4.9375 3.0625 -4.921875 3.0625 -5.21875 C 3.0625 -5.515625 3.328125 -5.578125 4.671875 -5.578125 C 6.0625 -5.578125 6.71875 -5.484375 6.71875 -5.078125 L 9.5625 -5.078125 C 9.5625 -7.046875 7.875 -7.765625 4.890625 -7.765625 C 1.875 -7.765625 0.21875 -7.046875 0.21875 -5.359375 C 0.21875 -3.578125 1.546875 -3 5 -2.890625 C 6.796875 -2.84375 7.046875 -2.796875 7.046875 -2.46875 C 7.046875 -2.1875 6.796875 -2.078125 5.109375 -2.078125 C 3.296875 -2.078125 2.953125 -2.328125 2.953125 -2.703125 L 0.109375 -2.703125 C 0.109375 -0.421875 1.859375 0.109375 5 0.109375 Z M 5 0.109375 "/></g></g></g><g fill="#000000" fill-opacity="1"><g transform="translate(299.174432, 211.387018)"><g><path d="M 5 0.109375 C 8.140625 0.109375 9.890625 -0.421875 9.890625 -2.53125 C 9.890625 -4.53125 8.015625 -4.75 5 -4.859375 C 3.328125 -4.9375 3.0625 -4.921875 3.0625 -5.21875 C 3.0625 -5.515625 3.328125 -5.578125 4.671875 -5.578125 C 6.0625 -5.578125 6.71875 -5.484375 6.71875 -5.078125 L 9.5625 -5.078125 C 9.5625 -7.046875 7.875 -7.765625 4.890625 -7.765625 C 1.875 -7.765625 0.21875 -7.046875 0.21875 -5.359375 C 0.21875 -3.578125 1.546875 -3 5 -2.890625 C 6.796875 -2.84375 7.046875 -2.796875 7.046875 -2.46875 C 7.046875 -2.1875 6.796875 -2.078125 5.109375 -2.078125 C 3.296875 -2.078125 2.953125 -2.328125 2.953125 -2.703125 L 0.109375 -2.703125 C 0.109375 -0.421875 1.859375 0.109375 5 0.109375 Z M 5 0.109375 "/></g></g></g></svg>