<svg xmlns="http://www.w3.org/2000/svg" xmlns:xlink="http://www.w3.org/1999/xlink" width="1920" zoomAndPan="magnify" viewBox="0 0 1440 809.999993" height="1080" preserveAspectRatio="xMidYMid meet" version="1.0"><defs><g/><clipPath id="dbc2ea6ae8"><path d="M 693 198 L 1303 198 L 1303 649 L 693 649 Z M 693 198 " clip-rule="nonzero"/></clipPath><clipPath id="787856f98e"><path d="M 664.773438 264.324219 L 1257.648438 120.621094 L 1360.757812 546.015625 L 767.882812 689.71875 Z M 664.773438 264.324219 " clip-rule="nonzero"/></clipPath><clipPath id="aa5689a42b"><path d="M 664.773438 264.324219 L 1257.648438 120.621094 L 1360.757812 546.015625 L 767.882812 689.71875 Z M 664.773438 264.324219 " clip-rule="nonzero"/></clipPath><clipPath id="0015bf9bbc"><path d="M 81 361.957031 L 167 361.957031 L 167 448.125 L 81 448.125 Z M 81 361.957031 " clip-rule="nonzero"/></clipPath></defs><g clip-path="url(#dbc2ea6ae8)"><g clip-path="url(#787856f98e)"><g clip-path="url(#aa5689a42b)"><path fill="#e11d48" d="M 1292.078125 321.632812 C 1294.292969 330.015625 1298.933594 335.019531 1302.746094 337.832031 C 1297 345.617188 1291.214844 353.363281 1285.398438 361.082031 C 1279.074219 356.324219 1268.78125 346.214844 1264.277344 329.179688 C 1253.605469 343.464844 1242.804688 357.648438 1231.875 371.734375 C 1219.390625 387.820312 1206.738281 403.78125 1193.886719 419.59375 C 1181.039062 435.410156 1167.988281 451.078125 1154.695312 466.5625 C 1141.402344 482.042969 1127.863281 497.339844 1113.996094 512.386719 C 1100.117188 527.421875 1085.921875 542.210938 1071.214844 556.59375 C 1056.507812 570.96875 1041.308594 584.957031 1025.210938 598.183594 C 1009.070312 611.355469 992.160156 623.929688 972.90625 634.261719 C 963.246094 639.367188 952.941406 643.929688 941.3125 646.757812 C 935.480469 648.117188 929.285156 649.023438 922.722656 648.9375 C 919.441406 648.898438 916.070312 648.546875 912.691406 647.941406 C 909.300781 647.269531 905.917969 646.28125 902.621094 644.949219 C 899.347656 643.5625 896.199219 641.859375 893.277344 639.863281 C 890.632812 637.828125 887.949219 635.945312 885.601562 633.488281 C 883.113281 631.230469 881.03125 628.535156 878.945312 625.882812 C 878.015625 624.476562 877.097656 623.0625 876.199219 621.640625 C 875.722656 620.9375 875.332031 620.203125 874.964844 619.457031 L 873.84375 617.230469 C 870.960938 611.269531 869.019531 605.015625 868.066406 598.945312 L 867.65625 596.652344 L 867.410156 594.398438 C 867.257812 592.898438 867.070312 591.382812 866.964844 589.890625 C 866.878906 586.953125 866.664062 583.953125 866.804688 581.089844 C 867.054688 569.503906 868.847656 558.550781 871.3125 548.039062 C 873.78125 537.519531 876.890625 527.378906 880.320312 517.460938 C 887.207031 497.632812 895.335938 478.652344 903.78125 459.980469 C 912.238281 441.3125 921.070312 422.972656 929.8125 404.714844 C 938.558594 386.457031 947.234375 368.285156 955.296875 350.03125 C 963.316406 331.789062 970.863281 313.410156 976.308594 295.023438 C 979 285.851562 981.121094 276.671875 982.148438 267.84375 L 982.414062 264.582031 L 982.554688 262.953125 L 982.585938 261.367188 C 982.601562 260.316406 982.652344 259.25 982.652344 258.214844 L 982.515625 255.179688 C 982.222656 251.214844 981.558594 247.523438 980.433594 244.390625 C 979.238281 241.308594 977.65625 238.800781 975.578125 236.664062 C 975.050781 236.136719 974.589844 235.550781 973.917969 235.121094 L 973.003906 234.398438 C 972.695312 234.15625 972.445312 233.890625 972.027344 233.667969 C 971.261719 233.203125 970.507812 232.730469 969.757812 232.238281 L 967.375 231.035156 C 964.136719 229.539062 960.632812 228.511719 956.878906 227.929688 C 953.132812 227.332031 949.085938 227.351562 944.960938 227.640625 C 936.671875 228.265625 927.933594 230.613281 919.304688 233.730469 C 910.664062 236.949219 902.082031 241.019531 893.660156 245.59375 C 876.808594 254.820312 860.585938 265.984375 844.894531 277.945312 C 829.203125 289.941406 814.019531 302.816406 799.246094 316.203125 C 784.476562 329.601562 770.085938 343.496094 756.066406 357.769531 C 749.050781 364.90625 742.132812 372.136719 735.308594 379.449219 C 731.898438 383.109375 728.515625 386.785156 725.164062 390.484375 C 721.835938 394.160156 718.445312 397.949219 715.316406 401.558594 L 693.488281 382.792969 C 696.996094 378.75 700.363281 374.992188 703.832031 371.15625 C 707.28125 367.347656 710.757812 363.570312 714.257812 359.820312 C 721.253906 352.316406 728.34375 344.910156 735.535156 337.597656 C 749.90625 322.960938 764.675781 308.695312 779.921875 294.871094 C 795.171875 281.050781 810.917969 267.6875 827.417969 255.070312 C 843.941406 242.488281 861.171875 230.570312 879.878906 220.320312 C 889.257812 215.234375 899.011719 210.570312 909.363281 206.714844 C 919.761719 202.972656 930.746094 199.890625 942.691406 198.945312 C 948.652344 198.515625 954.804688 198.484375 961.082031 199.453125 C 967.339844 200.398438 973.65625 202.203125 979.605469 204.976562 C 981.074219 205.710938 982.550781 206.433594 983.992188 207.21875 L 988.15625 209.828125 C 988.84375 210.230469 989.546875 210.8125 990.238281 211.34375 L 992.308594 212.972656 C 993.714844 214.011719 994.953125 215.316406 996.207031 216.585938 C 1001.210938 221.6875 1005.027344 227.980469 1007.421875 234.375 C 1009.75 240.789062 1010.792969 247.167969 1011.238281 253.292969 L 1011.433594 257.847656 C 1011.441406 259.34375 1011.386719 260.808594 1011.355469 262.289062 L 1011.296875 264.503906 L 1011.125 266.660156 L 1010.761719 270.96875 C 1009.449219 282.277344 1006.921875 292.890625 1003.921875 303.152344 C 997.839844 323.636719 989.902344 342.808594 981.632812 361.648438 C 973.324219 380.460938 964.53125 398.859375 955.777344 417.148438 C 947.019531 435.4375 938.265625 453.609375 930.003906 471.855469 C 921.746094 490.089844 913.929688 508.414062 907.523438 526.875 C 904.332031 536.097656 901.507812 545.359375 899.347656 554.566406 C 897.171875 563.765625 895.761719 572.9375 895.585938 581.617188 C 895.457031 583.816406 895.65625 585.878906 895.6875 588 C 895.765625 589.035156 895.902344 590.035156 896 591.054688 L 896.148438 592.578125 L 896.425781 594.023438 C 897.019531 597.964844 898.210938 601.464844 899.71875 604.613281 L 900.296875 605.785156 C 900.476562 606.183594 900.667969 606.570312 900.925781 606.90625 C 901.398438 607.613281 901.855469 608.324219 902.296875 609.050781 C 903.394531 610.328125 904.34375 611.722656 905.652344 612.839844 C 906.765625 614.101562 908.316406 615.066406 909.632812 616.175781 C 910.902344 617.03125 912.226562 617.738281 913.609375 618.34375 C 915.023438 618.898438 916.507812 619.339844 918.089844 619.667969 C 919.699219 619.933594 921.375 620.136719 923.164062 620.152344 C 926.734375 620.207031 930.648438 619.6875 934.671875 618.75 C 942.757812 616.800781 951.1875 613.210938 959.40625 608.839844 C 975.902344 600.011719 991.75 588.371094 1006.953125 575.929688 C 1022.171875 563.429688 1036.824219 549.957031 1051.089844 536.011719 C 1065.355469 522.0625 1079.230469 507.609375 1092.835938 492.871094 C 1106.429688 478.121094 1119.753906 463.070312 1132.855469 447.808594 C 1145.957031 432.546875 1158.84375 417.078125 1171.546875 401.441406 C 1184.25 385.808594 1196.773438 370.015625 1209.132812 354.089844 C 1219.953125 340.140625 1230.648438 326.09375 1241.214844 311.953125 C 1223.667969 312.355469 1211.175781 305.109375 1204.855469 300.355469 C 1210.472656 292.902344 1216.058594 285.421875 1221.59375 277.921875 C 1225.40625 280.734375 1231.523438 283.75 1240.105469 283.464844 C 1248.660156 283.195312 1259.800781 279.550781 1273.242188 269.097656 L 1295.824219 285.011719 C 1290.0625 301.558594 1289.867188 313.21875 1292.078125 321.632812 Z M 1292.078125 321.632812 " fill-opacity="1" fill-rule="nonzero"/></g></g></g><g clip-path="url(#0015bf9bbc)"><path fill="#e11d48" d="M 166.867188 393.203125 L 166.867188 416.777344 C 138.316406 425.125 134.054688 439.9375 134.054688 448.023438 L 109.492188 448.023438 C 109.492188 441.273438 111.050781 429.054688 120.433594 417.269531 L 81.03125 417.269531 L 81.03125 392.710938 L 120.429688 392.710938 C 111.050781 380.929688 109.492188 368.710938 109.492188 361.957031 L 134.054688 361.957031 C 134.054688 370.042969 138.316406 384.855469 166.867188 393.203125 Z M 166.867188 393.203125 " fill-opacity="1" fill-rule="nonzero"/></g><g fill="#000000" fill-opacity="1"><g transform="translate(226.044312, 443.16855)"><g><path d="M 53 1.171875 C 86.09375 1.171875 103.15625 -10.484375 104.453125 -36.625 L 73.125 -36.625 C 71.953125 -28.734375 65.953125 -24.734375 53 -24.734375 C 34.96875 -24.734375 31.796875 -32.5 31.796875 -41.328125 C 31.796875 -50.046875 34.859375 -57.703125 53 -57.703125 C 65.953125 -57.703125 71.953125 -53.8125 73.125 -46.046875 L 104.453125 -46.046875 C 103.15625 -72.078125 85.96875 -83.609375 53 -83.609375 C 16.71875 -83.609375 1.171875 -69.953125 1.171875 -41.328125 C 1.171875 -12.59375 16.71875 1.171875 53 1.171875 Z M 53 1.171875 "/></g></g></g><g fill="#000000" fill-opacity="1"><g transform="translate(331.640908, 443.16855)"><g><path d="M 2.359375 0 L 32.96875 0 L 32.96875 -28.265625 L 81.265625 -28.265625 L 81.265625 0 L 111.875 0 L 111.875 -82.4375 L 81.265625 -82.4375 L 81.265625 -54.171875 L 32.96875 -54.171875 L 32.96875 -82.4375 L 2.359375 -82.4375 Z M 2.359375 0 "/></g></g></g><g fill="#000000" fill-opacity="1"><g transform="translate(445.831251, 443.16855)"><g><path d="M 1.171875 0 L 34.859375 0 L 40.515625 -14.84375 L 75.609375 -14.84375 L 81.265625 0 L 114.9375 0 L 80.78125 -82.4375 L 35.328125 -82.4375 Z M 48.515625 -36.03125 L 58.0625 -61.234375 L 67.59375 -36.03125 Z M 48.515625 -36.03125 "/></g></g></g><g fill="#000000" fill-opacity="1"><g transform="translate(561.905119, 443.16855)"><g><path d="M 2.359375 0 L 32.96875 0 L 32.96875 -82.4375 L 2.359375 -82.4375 Z M 2.359375 0 "/></g></g></g><g fill="#000000" fill-opacity="1"><g transform="translate(597.221734, 443.16855)"><g/></g></g><g fill="#000000" fill-opacity="1"><g transform="translate(644.310554, 443.16855)"><g><path d="M 53.8125 1.171875 C 87.625 1.171875 106.453125 -4.59375 106.453125 -27.328125 C 106.453125 -48.875 86.328125 -51.109375 53.8125 -52.40625 C 35.921875 -53.109375 32.96875 -53 32.96875 -56.171875 C 32.96875 -59.359375 35.921875 -60.0625 50.28125 -60.0625 C 65.234375 -60.0625 72.3125 -59.125 72.3125 -54.765625 L 102.921875 -54.765625 C 102.921875 -75.84375 84.796875 -83.609375 52.640625 -83.609375 C 20.140625 -83.609375 2.359375 -75.84375 2.359375 -57.703125 C 2.359375 -38.515625 16.609375 -32.390625 53.8125 -31.203125 C 73.125 -30.625 75.84375 -30.140625 75.84375 -26.609375 C 75.84375 -23.546875 73.125 -22.375 55 -22.375 C 35.5625 -22.375 31.796875 -25.078125 31.796875 -29.09375 L 1.171875 -29.09375 C 1.171875 -4.59375 20.015625 1.171875 53.8125 1.171875 Z M 53.8125 1.171875 "/></g></g></g><g fill="#000000" fill-opacity="1"><g transform="translate(751.908426, 443.16855)"><g><path d="M 36.5 0 L 67.125 0 L 67.125 -56.53125 L 102.453125 -56.53125 L 102.453125 -82.4375 L 1.171875 -82.4375 L 1.171875 -56.53125 L 36.5 -56.53125 Z M 36.5 0 "/></g></g></g><g fill="#000000" fill-opacity="1"><g transform="translate(855.503798, 443.16855)"><g><path d="M 53 1.171875 C 89.15625 1.171875 104.8125 -12.71875 104.8125 -41.328125 C 104.8125 -69.828125 89.15625 -83.609375 53 -83.609375 C 16.71875 -83.609375 1.171875 -69.953125 1.171875 -41.328125 C 1.171875 -12.59375 16.71875 1.171875 53 1.171875 Z M 53 -24.734375 C 34.96875 -24.734375 31.796875 -32.5 31.796875 -41.328125 C 31.796875 -50.046875 34.859375 -57.703125 53 -57.703125 C 71.125 -57.703125 74.1875 -49.9375 74.1875 -41.328125 C 74.1875 -32.625 71.015625 -24.734375 53 -24.734375 Z M 53 -24.734375 "/></g></g></g><g fill="#000000" fill-opacity="1"><g transform="translate(961.453591, 443.16855)"><g><path d="M 2.359375 0 L 32.96875 0 L 32.96875 -19.3125 L 51 -19.3125 L 62.421875 0 L 98.6875 0 L 84.078125 -23.671875 C 93.15625 -28.96875 98.6875 -38.859375 98.6875 -50.875 C 98.6875 -69.25 85.84375 -82.4375 67.125 -82.4375 L 2.359375 -82.4375 Z M 32.96875 -45.21875 L 32.96875 -56.53125 L 61.234375 -56.53125 C 64.296875 -56.53125 68.0625 -56.53125 68.0625 -50.875 C 68.0625 -45.21875 64.296875 -45.21875 61.234375 -45.21875 Z M 32.96875 -45.21875 "/></g></g></g><g fill="#000000" fill-opacity="1"><g transform="translate(1061.28186, 443.16855)"><g><path d="M 43.109375 0 L 73.71875 0 L 73.71875 -27.09375 L 115.640625 -82.4375 L 80.3125 -82.4375 L 58.40625 -51.8125 L 36.5 -82.4375 L 1.171875 -82.4375 L 43.109375 -27.09375 Z M 43.109375 0 "/></g></g></g><g fill="#000000" fill-opacity="1"><g transform="translate(226.044312, 510.573782)"><g><path d="M 18.40625 0 L 31.46875 0 L 31.46875 -11.5625 L 49.375 -35.203125 L 34.296875 -35.203125 L 24.9375 -22.125 L 15.59375 -35.203125 L 0.5 -35.203125 L 18.40625 -11.5625 Z M 18.40625 0 "/></g></g></g><g fill="#000000" fill-opacity="1"><g transform="translate(275.886766, 510.573782)"><g><path d="M 22.625 0.5 C 38.0625 0.5 44.75 -5.4375 44.75 -17.65625 C 44.75 -29.8125 38.0625 -35.703125 22.625 -35.703125 C 7.140625 -35.703125 0.5 -29.859375 0.5 -17.65625 C 0.5 -5.375 7.140625 0.5 22.625 0.5 Z M 22.625 -10.5625 C 14.9375 -10.5625 13.578125 -13.875 13.578125 -17.65625 C 13.578125 -21.375 14.890625 -24.640625 22.625 -24.640625 C 30.375 -24.640625 31.671875 -21.3125 31.671875 -17.65625 C 31.671875 -13.921875 30.3125 -10.5625 22.625 -10.5625 Z M 22.625 -10.5625 "/></g></g></g><g fill="#000000" fill-opacity="1"><g transform="translate(321.106734, 510.573782)"><g><path d="M 23.125 0.5 C 38.5625 0.5 45.25 -5.4375 45.25 -17.65625 L 45.25 -35.203125 L 32.1875 -35.203125 L 32.1875 -17.65625 C 32.1875 -13.921875 30.828125 -10.5625 23.125 -10.5625 C 15.4375 -10.5625 14.078125 -13.875 14.078125 -17.65625 L 14.078125 -35.203125 L 1 -35.203125 L 1 -17.65625 C 1 -5.375 7.640625 0.5 23.125 0.5 Z M 23.125 0.5 "/></g></g></g><g fill="#000000" fill-opacity="1"><g transform="translate(367.331546, 510.573782)"><g><path d="M 1 0 L 14.078125 0 L 14.078125 -8.25 L 21.765625 -8.25 L 26.65625 0 L 42.140625 0 L 35.90625 -10.109375 C 39.765625 -12.375 42.140625 -16.59375 42.140625 -21.71875 C 42.140625 -29.5625 36.65625 -35.203125 28.65625 -35.203125 L 1 -35.203125 Z M 14.078125 -19.3125 L 14.078125 -24.140625 L 26.140625 -24.140625 C 27.453125 -24.140625 29.0625 -24.140625 29.0625 -21.71875 C 29.0625 -19.3125 27.453125 -19.3125 26.140625 -19.3125 Z M 14.078125 -19.3125 "/></g></g></g><g fill="#000000" fill-opacity="1"><g transform="translate(409.93877, 510.573782)"><g/></g></g><g fill="#000000" fill-opacity="1"><g transform="translate(430.03651, 510.573782)"><g><path d="M 22.984375 0.5 C 37.40625 0.5 45.453125 -1.96875 45.453125 -11.671875 C 45.453125 -20.859375 36.859375 -21.828125 22.984375 -22.375 C 15.328125 -22.671875 14.078125 -22.625 14.078125 -23.984375 C 14.078125 -25.34375 15.328125 -25.640625 21.46875 -25.640625 C 27.859375 -25.640625 30.875 -25.234375 30.875 -23.375 L 43.953125 -23.375 C 43.953125 -32.375 36.203125 -35.703125 22.46875 -35.703125 C 8.59375 -35.703125 1 -32.375 1 -24.640625 C 1 -16.4375 7.09375 -13.828125 22.984375 -13.328125 C 31.21875 -13.078125 32.375 -12.875 32.375 -11.359375 C 32.375 -10.0625 31.21875 -9.546875 23.484375 -9.546875 C 15.1875 -9.546875 13.578125 -10.703125 13.578125 -12.421875 L 0.5 -12.421875 C 0.5 -1.96875 8.546875 0.5 22.984375 0.5 Z M 22.984375 0.5 "/></g></g></g><g fill="#000000" fill-opacity="1"><g transform="translate(475.959874, 510.573782)"><g><path d="M 15.59375 0 L 28.65625 0 L 28.65625 -24.140625 L 43.75 -24.140625 L 43.75 -35.203125 L 0.5 -35.203125 L 0.5 -24.140625 L 15.59375 -24.140625 Z M 15.59375 0 "/></g></g></g><g fill="#000000" fill-opacity="1"><g transform="translate(520.174945, 510.573782)"><g><path d="M 22.625 0.5 C 38.0625 0.5 44.75 -5.4375 44.75 -17.65625 C 44.75 -29.8125 38.0625 -35.703125 22.625 -35.703125 C 7.140625 -35.703125 0.5 -29.859375 0.5 -17.65625 C 0.5 -5.375 7.140625 0.5 22.625 0.5 Z M 22.625 -10.5625 C 14.9375 -10.5625 13.578125 -13.875 13.578125 -17.65625 C 13.578125 -21.375 14.890625 -24.640625 22.625 -24.640625 C 30.375 -24.640625 31.671875 -21.3125 31.671875 -17.65625 C 31.671875 -13.921875 30.3125 -10.5625 22.625 -10.5625 Z M 22.625 -10.5625 "/></g></g></g><g fill="#000000" fill-opacity="1"><g transform="translate(565.394913, 510.573782)"><g><path d="M 1 0 L 14.078125 0 L 14.078125 -8.25 L 21.765625 -8.25 L 26.65625 0 L 42.140625 0 L 35.90625 -10.109375 C 39.765625 -12.375 42.140625 -16.59375 42.140625 -21.71875 C 42.140625 -29.5625 36.65625 -35.203125 28.65625 -35.203125 L 1 -35.203125 Z M 14.078125 -19.3125 L 14.078125 -24.140625 L 26.140625 -24.140625 C 27.453125 -24.140625 29.0625 -24.140625 29.0625 -21.71875 C 29.0625 -19.3125 27.453125 -19.3125 26.140625 -19.3125 Z M 14.078125 -19.3125 "/></g></g></g><g fill="#000000" fill-opacity="1"><g transform="translate(608.002136, 510.573782)"><g><path d="M 18.40625 0 L 31.46875 0 L 31.46875 -11.5625 L 49.375 -35.203125 L 34.296875 -35.203125 L 24.9375 -22.125 L 15.59375 -35.203125 L 0.5 -35.203125 L 18.40625 -11.5625 Z M 18.40625 0 "/></g></g></g><g fill="#000000" fill-opacity="1"><g transform="translate(657.84459, 510.573782)"><g><path d="M 2.015625 11.0625 L 7.390625 11.0625 L 13.078125 0 L 13.078125 -9.046875 L 1 -9.046875 L 1 0 L 5.4375 0 Z M 2.015625 11.0625 "/></g></g></g><g fill="#000000" fill-opacity="1"><g transform="translate(671.912998, 510.573782)"><g/></g></g><g fill="#000000" fill-opacity="1"><g transform="translate(692.010738, 510.573782)"><g><path d="M 18.40625 0 L 31.46875 0 L 31.46875 -11.5625 L 49.375 -35.203125 L 34.296875 -35.203125 L 24.9375 -22.125 L 15.59375 -35.203125 L 0.5 -35.203125 L 18.40625 -11.5625 Z M 18.40625 0 "/></g></g></g><g fill="#000000" fill-opacity="1"><g transform="translate(741.853192, 510.573782)"><g><path d="M 22.625 0.5 C 38.0625 0.5 44.75 -5.4375 44.75 -17.65625 C 44.75 -29.8125 38.0625 -35.703125 22.625 -35.703125 C 7.140625 -35.703125 0.5 -29.859375 0.5 -17.65625 C 0.5 -5.375 7.140625 0.5 22.625 0.5 Z M 22.625 -10.5625 C 14.9375 -10.5625 13.578125 -13.875 13.578125 -17.65625 C 13.578125 -21.375 14.890625 -24.640625 22.625 -24.640625 C 30.375 -24.640625 31.671875 -21.3125 31.671875 -17.65625 C 31.671875 -13.921875 30.3125 -10.5625 22.625 -10.5625 Z M 22.625 -10.5625 "/></g></g></g><g fill="#000000" fill-opacity="1"><g transform="translate(787.07316, 510.573782)"><g><path d="M 23.125 0.5 C 38.5625 0.5 45.25 -5.4375 45.25 -17.65625 L 45.25 -35.203125 L 32.1875 -35.203125 L 32.1875 -17.65625 C 32.1875 -13.921875 30.828125 -10.5625 23.125 -10.5625 C 15.4375 -10.5625 14.078125 -13.875 14.078125 -17.65625 L 14.078125 -35.203125 L 1 -35.203125 L 1 -17.65625 C 1 -5.375 7.640625 0.5 23.125 0.5 Z M 23.125 0.5 "/></g></g></g><g fill="#000000" fill-opacity="1"><g transform="translate(833.297973, 510.573782)"><g><path d="M 1 0 L 14.078125 0 L 14.078125 -8.25 L 21.765625 -8.25 L 26.65625 0 L 42.140625 0 L 35.90625 -10.109375 C 39.765625 -12.375 42.140625 -16.59375 42.140625 -21.71875 C 42.140625 -29.5625 36.65625 -35.203125 28.65625 -35.203125 L 1 -35.203125 Z M 14.078125 -19.3125 L 14.078125 -24.140625 L 26.140625 -24.140625 C 27.453125 -24.140625 29.0625 -24.140625 29.0625 -21.71875 C 29.0625 -19.3125 27.453125 -19.3125 26.140625 -19.3125 Z M 14.078125 -19.3125 "/></g></g></g><g fill="#000000" fill-opacity="1"><g transform="translate(875.905196, 510.573782)"><g/></g></g><g fill="#000000" fill-opacity="1"><g transform="translate(896.002936, 510.573782)"><g><path d="M 12.0625 0 L 31.46875 0 L 37.265625 -20.265625 L 43.046875 0 L 62.453125 0 L 74.015625 -35.203125 L 59.984375 -35.203125 L 52.6875 -10.359375 L 45.046875 -35.203125 L 29.46875 -35.203125 L 21.828125 -10.359375 L 14.53125 -35.203125 L 0.5 -35.203125 Z M 12.0625 0 "/></g></g></g><g fill="#000000" fill-opacity="1"><g transform="translate(970.465118, 510.573782)"><g><path d="M 22.625 0.5 C 38.0625 0.5 44.75 -5.4375 44.75 -17.65625 C 44.75 -29.8125 38.0625 -35.703125 22.625 -35.703125 C 7.140625 -35.703125 0.5 -29.859375 0.5 -17.65625 C 0.5 -5.375 7.140625 0.5 22.625 0.5 Z M 22.625 -10.5625 C 14.9375 -10.5625 13.578125 -13.875 13.578125 -17.65625 C 13.578125 -21.375 14.890625 -24.640625 22.625 -24.640625 C 30.375 -24.640625 31.671875 -21.3125 31.671875 -17.65625 C 31.671875 -13.921875 30.3125 -10.5625 22.625 -10.5625 Z M 22.625 -10.5625 "/></g></g></g><g fill="#000000" fill-opacity="1"><g transform="translate(1015.685086, 510.573782)"><g><path d="M 1 0 L 14.078125 0 L 14.078125 -8.25 L 21.765625 -8.25 L 26.65625 0 L 42.140625 0 L 35.90625 -10.109375 C 39.765625 -12.375 42.140625 -16.59375 42.140625 -21.71875 C 42.140625 -29.5625 36.65625 -35.203125 28.65625 -35.203125 L 1 -35.203125 Z M 14.078125 -19.3125 L 14.078125 -24.140625 L 26.140625 -24.140625 C 27.453125 -24.140625 29.0625 -24.140625 29.0625 -21.71875 C 29.0625 -19.3125 27.453125 -19.3125 26.140625 -19.3125 Z M 14.078125 -19.3125 "/></g></g></g><g fill="#000000" fill-opacity="1"><g transform="translate(1058.29231, 510.573782)"><g><path d="M 1 0 L 27.15625 0 C 35.65625 0 43.640625 -5.625 43.640625 -17.59375 C 43.640625 -29.5625 35.65625 -35.203125 27.15625 -35.203125 L 1 -35.203125 Z M 14.078125 -11.0625 L 14.078125 -24.140625 L 23.125 -24.140625 C 25.9375 -24.140625 30.578125 -24.140625 30.578125 -17.59375 C 30.578125 -11.0625 25.9375 -11.0625 23.125 -11.0625 Z M 14.078125 -11.0625 "/></g></g></g><g fill="#000000" fill-opacity="1"><g transform="translate(1102.40688, 510.573782)"><g><path d="M 22.984375 0.5 C 37.40625 0.5 45.453125 -1.96875 45.453125 -11.671875 C 45.453125 -20.859375 36.859375 -21.828125 22.984375 -22.375 C 15.328125 -22.671875 14.078125 -22.625 14.078125 -23.984375 C 14.078125 -25.34375 15.328125 -25.640625 21.46875 -25.640625 C 27.859375 -25.640625 30.875 -25.234375 30.875 -23.375 L 43.953125 -23.375 C 43.953125 -32.375 36.203125 -35.703125 22.46875 -35.703125 C 8.59375 -35.703125 1 -32.375 1 -24.640625 C 1 -16.4375 7.09375 -13.828125 22.984375 -13.328125 C 31.21875 -13.078125 32.375 -12.875 32.375 -11.359375 C 32.375 -10.0625 31.21875 -9.546875 23.484375 -9.546875 C 15.1875 -9.546875 13.578125 -10.703125 13.578125 -12.421875 L 0.5 -12.421875 C 0.5 -1.96875 8.546875 0.5 22.984375 0.5 Z M 22.984375 0.5 "/></g></g></g></svg>