<svg xmlns="http://www.w3.org/2000/svg" xmlns:xlink="http://www.w3.org/1999/xlink" zoomAndPan="magnify" preserveAspectRatio="xMidYMid meet" version="1.0" viewBox="89.75 170 195.82 55.48"><defs><g/><clipPath id="f1366cb540"><path d="M 188 202.6875 L 201 202.6875 L 201 222 L 188 222 Z M 188 202.6875 " clip-rule="nonzero"/></clipPath><clipPath id="8f64e510c6"><path d="M 188 203 L 201 203 L 201 222.9375 L 188 222.9375 Z M 188 203 " clip-rule="nonzero"/></clipPath><clipPath id="2898fe241f"><path d="M 230.25 202.6875 L 239.25 202.6875 L 239.25 218.4375 L 230.25 218.4375 Z M 230.25 202.6875 " clip-rule="nonzero"/></clipPath><clipPath id="d065649dc6"><path d="M 141 181.6875 L 150.707031 181.6875 L 150.707031 200.4375 L 141 200.4375 Z M 141 181.6875 " clip-rule="nonzero"/></clipPath><clipPath id="7b1ef9b69d"><path d="M 162.300781 201.527344 L 176.550781 201.527344 L 176.550781 212 L 162.300781 212 Z M 162.300781 201.527344 " clip-rule="nonzero"/></clipPath></defs><g fill="#e11d48" fill-opacity="1"><g transform="translate(88.765622, 205.251666)"><g><path d="M 16.40625 -8.5 C 14.863281 -11.863281 13.5 -15.117188 12.3125 -18.265625 C 11.132812 -21.421875 10.128906 -24.234375 9.296875 -26.703125 C 8.535156 -22.566406 7.894531 -18.398438 7.375 -14.203125 C 6.851562 -10.003906 6.195312 -5.988281 5.40625 -2.15625 C 5.195312 -1.28125 4.828125 -0.703125 4.296875 -0.421875 C 3.765625 -0.140625 3.316406 0 2.953125 0 C 2.347656 0 1.867188 -0.179688 1.515625 -0.546875 C 1.171875 -0.910156 1 -1.378906 1 -1.953125 C 1 -2.710938 1.085938 -3.882812 1.265625 -5.46875 C 1.453125 -7.050781 1.6875 -8.84375 1.96875 -10.84375 C 2.257812 -12.84375 2.585938 -14.941406 2.953125 -17.140625 C 3.316406 -19.347656 3.691406 -21.472656 4.078125 -23.515625 C 4.460938 -25.566406 4.828125 -27.425781 5.171875 -29.09375 C 5.523438 -30.757812 5.832031 -32.046875 6.09375 -32.953125 C 6.53125 -34.484375 7.414062 -35.25 8.75 -35.25 C 9.550781 -35.25 10.234375 -34.859375 10.796875 -34.078125 C 11.367188 -33.296875 11.976562 -32.09375 12.625 -30.46875 C 13.269531 -28.851562 14.050781 -26.8125 14.96875 -24.34375 C 15.882812 -21.882812 17.078125 -18.988281 18.546875 -15.65625 C 19.984375 -18.988281 21.140625 -21.878906 22.015625 -24.328125 C 22.898438 -26.773438 23.648438 -28.804688 24.265625 -30.421875 C 24.890625 -32.035156 25.484375 -33.234375 26.046875 -34.015625 C 26.617188 -34.804688 27.320312 -35.203125 28.15625 -35.203125 C 28.914062 -35.203125 29.492188 -35.007812 29.890625 -34.625 C 30.296875 -34.238281 30.597656 -33.664062 30.796875 -32.90625 C 31.035156 -31.96875 31.320312 -30.671875 31.65625 -29.015625 C 31.988281 -27.367188 32.34375 -25.535156 32.71875 -23.515625 C 33.101562 -21.503906 33.476562 -19.398438 33.84375 -17.203125 C 34.21875 -15.003906 34.550781 -12.90625 34.84375 -10.90625 C 35.144531 -8.90625 35.382812 -7.09375 35.5625 -5.46875 C 35.75 -3.851562 35.84375 -2.613281 35.84375 -1.75 C 35.84375 -1.21875 35.660156 -0.789062 35.296875 -0.46875 C 34.929688 -0.15625 34.46875 0 33.90625 0 C 33.53125 0 33.078125 -0.140625 32.546875 -0.421875 C 32.015625 -0.703125 31.648438 -1.28125 31.453125 -2.15625 C 31.046875 -4.050781 30.6875 -6.015625 30.375 -8.046875 C 30.0625 -10.078125 29.757812 -12.132812 29.46875 -14.21875 C 29.1875 -16.300781 28.910156 -18.382812 28.640625 -20.46875 C 28.378906 -22.550781 28.097656 -24.628906 27.796875 -26.703125 C 27.367188 -25.367188 26.867188 -23.898438 26.296875 -22.296875 C 25.734375 -20.703125 25.132812 -19.09375 24.5 -17.46875 C 23.863281 -15.851562 23.210938 -14.257812 22.546875 -12.6875 C 21.878906 -11.125 21.226562 -9.710938 20.59375 -8.453125 C 20.363281 -8.015625 20.054688 -7.6875 19.671875 -7.46875 C 19.285156 -7.257812 18.894531 -7.15625 18.5 -7.15625 C 18.0625 -7.15625 17.648438 -7.257812 17.265625 -7.46875 C 16.890625 -7.6875 16.601562 -8.03125 16.40625 -8.5 Z M 16.40625 -8.5 "/></g></g></g><g fill="#e11d48" fill-opacity="1"><g transform="translate(122.109918, 205.251666)"><g><path d="M 3.40625 -3.09375 C 3.332031 -4.332031 3.269531 -5.742188 3.21875 -7.328125 C 3.175781 -8.910156 3.15625 -10.648438 3.15625 -12.546875 C 3.15625 -14.910156 3.171875 -16.9375 3.203125 -18.625 C 3.234375 -20.3125 3.320312 -21.695312 3.46875 -22.78125 C 3.625 -23.863281 3.867188 -24.660156 4.203125 -25.171875 C 4.535156 -25.691406 5 -25.953125 5.59375 -25.953125 C 6.164062 -25.953125 6.664062 -25.75 7.09375 -25.34375 C 7.53125 -24.945312 7.78125 -24.082031 7.84375 -22.75 C 8.050781 -19.25 8.15625 -15.863281 8.15625 -12.59375 C 8.15625 -10.925781 8.117188 -9.367188 8.046875 -7.921875 C 7.984375 -6.472656 7.914062 -4.882812 7.84375 -3.15625 C 7.8125 -2.351562 7.738281 -1.734375 7.625 -1.296875 C 7.507812 -0.867188 7.347656 -0.535156 7.140625 -0.296875 C 6.941406 -0.0664062 6.71875 0.0703125 6.46875 0.125 C 6.21875 0.175781 5.925781 0.203125 5.59375 0.203125 C 5 0.203125 4.5 -0.00390625 4.09375 -0.421875 C 3.695312 -0.835938 3.46875 -1.726562 3.40625 -3.09375 Z M 5.65625 -35 C 6.414062 -35 7.117188 -34.695312 7.765625 -34.09375 C 8.421875 -33.5 8.75 -32.785156 8.75 -31.953125 C 8.75 -31.148438 8.414062 -30.457031 7.75 -29.875 C 7.082031 -29.289062 6.332031 -29 5.5 -29 C 4.800781 -29 4.140625 -29.289062 3.515625 -29.875 C 2.898438 -30.457031 2.59375 -31.179688 2.59375 -32.046875 C 2.59375 -32.847656 2.898438 -33.539062 3.515625 -34.125 C 4.140625 -34.707031 4.851562 -35 5.65625 -35 Z M 5.65625 -35 "/></g></g></g><g fill="#e11d48" fill-opacity="1"><g transform="translate(129.908165, 205.251666)"><g><path d="M 14.796875 -21.296875 C 13.566406 -21.296875 12.457031 -21.09375 11.46875 -20.6875 C 10.488281 -20.289062 9.382812 -19.695312 8.15625 -18.90625 C 8.15625 -18.195312 8.15625 -17.164062 8.15625 -15.8125 C 8.15625 -14.46875 8.132812 -13.003906 8.09375 -11.421875 C 8.0625 -9.835938 8.03125 -8.28125 8 -6.75 C 7.96875 -5.21875 7.898438 -3.9375 7.796875 -2.90625 C 7.734375 -2.238281 7.660156 -1.710938 7.578125 -1.328125 C 7.492188 -0.941406 7.375 -0.648438 7.21875 -0.453125 C 7.070312 -0.253906 6.875 -0.128906 6.625 -0.078125 C 6.375 -0.0234375 6.050781 0 5.65625 0 C 5.25 0 4.921875 -0.0234375 4.671875 -0.078125 C 4.421875 -0.128906 4.210938 -0.242188 4.046875 -0.421875 C 3.878906 -0.609375 3.742188 -0.882812 3.640625 -1.25 C 3.546875 -1.613281 3.46875 -2.113281 3.40625 -2.75 C 3.332031 -3.351562 3.269531 -4.15625 3.21875 -5.15625 C 3.175781 -6.15625 3.132812 -7.242188 3.09375 -8.421875 C 3.0625 -9.609375 3.035156 -10.804688 3.015625 -12.015625 C 3.003906 -13.234375 3 -14.363281 3 -15.40625 C 3 -17.101562 3.023438 -18.484375 3.078125 -19.546875 C 3.128906 -20.617188 3.21875 -21.570312 3.34375 -22.40625 C 3.550781 -23.800781 3.820312 -24.679688 4.15625 -25.046875 C 4.488281 -25.410156 4.9375 -25.59375 5.5 -25.59375 C 6.332031 -25.59375 6.957031 -25.359375 7.375 -24.890625 C 7.789062 -24.429688 8.050781 -23.664062 8.15625 -22.59375 C 9.382812 -23.664062 10.707031 -24.515625 12.125 -25.140625 C 13.539062 -25.773438 15 -26.09375 16.5 -26.09375 C 17.9375 -26.09375 19.242188 -25.757812 20.421875 -25.09375 C 21.609375 -24.425781 22.582031 -23.34375 23.34375 -21.84375 C 23.8125 -20.945312 24.160156 -19.957031 24.390625 -18.875 C 24.628906 -17.789062 24.800781 -16.648438 24.90625 -15.453125 C 24.9375 -14.921875 24.96875 -14.394531 25 -13.875 C 25.03125 -13.351562 25.050781 -12.800781 25.0625 -12.21875 C 25.082031 -11.632812 25.09375 -10.976562 25.09375 -10.25 C 25.09375 -9.519531 25.09375 -8.65625 25.09375 -7.65625 C 25.09375 -6.582031 25.078125 -5.578125 25.046875 -4.640625 C 25.015625 -3.710938 24.921875 -2.90625 24.765625 -2.21875 C 24.617188 -1.539062 24.363281 -1.007812 24 -0.625 C 23.632812 -0.238281 23.132812 -0.046875 22.5 -0.046875 C 20.96875 -0.046875 20.164062 -0.78125 20.09375 -2.25 C 20.09375 -2.351562 20.09375 -2.78125 20.09375 -3.53125 C 20.09375 -4.28125 20.082031 -5.15625 20.0625 -6.15625 C 20.050781 -7.15625 20.035156 -8.171875 20.015625 -9.203125 C 20.003906 -10.234375 19.984375 -11.082031 19.953125 -11.75 C 19.921875 -12.28125 19.878906 -12.851562 19.828125 -13.46875 C 19.773438 -14.09375 19.707031 -14.71875 19.625 -15.34375 C 19.539062 -15.976562 19.429688 -16.585938 19.296875 -17.171875 C 19.160156 -17.753906 18.992188 -18.28125 18.796875 -18.75 C 18.328125 -19.851562 17.742188 -20.550781 17.046875 -20.84375 C 16.347656 -21.144531 15.597656 -21.296875 14.796875 -21.296875 Z M 14.796875 -21.296875 "/></g></g></g><g fill="#e11d48" fill-opacity="1"><g transform="translate(154.253861, 205.251666)"><g><path d="M 14.59375 -9.203125 C 13.425781 -9.203125 12.203125 -9.289062 10.921875 -9.46875 C 9.640625 -9.65625 8.25 -10.050781 6.75 -10.65625 C 7.050781 -8.613281 7.890625 -7.078125 9.265625 -6.046875 C 10.648438 -5.015625 12.644531 -4.5 15.25 -4.5 C 16.1875 -4.5 17.03125 -4.554688 17.78125 -4.671875 C 18.53125 -4.785156 19.1875 -4.914062 19.75 -5.0625 C 20.3125 -5.21875 20.8125 -5.351562 21.25 -5.46875 C 21.6875 -5.59375 22.085938 -5.65625 22.453125 -5.65625 C 22.921875 -5.65625 23.367188 -5.507812 23.796875 -5.21875 C 24.234375 -4.9375 24.453125 -4.460938 24.453125 -3.796875 C 24.453125 -2.960938 24.109375 -2.28125 23.421875 -1.75 C 22.742188 -1.21875 21.910156 -0.789062 20.921875 -0.46875 C 19.941406 -0.15625 18.898438 0.0546875 17.796875 0.171875 C 16.703125 0.285156 15.738281 0.34375 14.90625 0.34375 C 12.9375 0.34375 11.125 0.078125 9.46875 -0.453125 C 7.820312 -0.984375 6.398438 -1.789062 5.203125 -2.875 C 4.003906 -3.957031 3.070312 -5.296875 2.40625 -6.890625 C 1.738281 -8.492188 1.40625 -10.363281 1.40625 -12.5 C 1.40625 -14.5625 1.726562 -16.394531 2.375 -18 C 3.019531 -19.601562 3.910156 -20.953125 5.046875 -22.046875 C 6.179688 -23.148438 7.523438 -23.984375 9.078125 -24.546875 C 10.628906 -25.117188 12.300781 -25.40625 14.09375 -25.40625 C 15.5 -25.40625 16.859375 -25.21875 18.171875 -24.84375 C 19.492188 -24.476562 20.660156 -23.925781 21.671875 -23.1875 C 22.691406 -22.457031 23.507812 -21.535156 24.125 -20.421875 C 24.738281 -19.304688 25.046875 -18 25.046875 -16.5 C 25.046875 -15.164062 24.796875 -14.03125 24.296875 -13.09375 C 23.796875 -12.164062 23.085938 -11.414062 22.171875 -10.84375 C 21.253906 -10.28125 20.15625 -9.863281 18.875 -9.59375 C 17.59375 -9.332031 16.164062 -9.203125 14.59375 -9.203125 Z M 14.25 -20.796875 C 13.351562 -20.796875 12.488281 -20.6875 11.65625 -20.46875 C 10.820312 -20.257812 10.0625 -19.910156 9.375 -19.421875 C 8.6875 -18.941406 8.109375 -18.304688 7.640625 -17.515625 C 7.179688 -16.734375 6.867188 -15.757812 6.703125 -14.59375 C 7.960938 -14.03125 9.191406 -13.640625 10.390625 -13.421875 C 11.597656 -13.203125 12.867188 -13.09375 14.203125 -13.09375 C 16.171875 -13.09375 17.628906 -13.332031 18.578125 -13.8125 C 19.523438 -14.300781 20 -15.179688 20 -16.453125 C 20 -17.617188 19.554688 -18.632812 18.671875 -19.5 C 17.785156 -20.363281 16.3125 -20.796875 14.25 -20.796875 Z M 14.25 -20.796875 "/></g></g></g><g fill="#e11d48" fill-opacity="1"><g transform="translate(177.499716, 205.251666)"><g/></g></g><g fill="#e11d48" fill-opacity="1"><g transform="translate(184.448099, 205.251666)"><g><path d="M 11.84375 -26.09375 C 12.550781 -26.09375 13.4375 -26.035156 14.5 -25.921875 C 15.5625 -25.804688 16.578125 -25.585938 17.546875 -25.265625 C 18.515625 -24.953125 19.347656 -24.507812 20.046875 -23.9375 C 20.742188 -23.375 21.09375 -22.660156 21.09375 -21.796875 C 21.09375 -21.296875 20.953125 -20.863281 20.671875 -20.5 C 20.390625 -20.132812 19.945312 -19.953125 19.34375 -19.953125 C 18.914062 -19.953125 18.425781 -20.015625 17.875 -20.140625 C 17.320312 -20.273438 16.71875 -20.4375 16.0625 -20.625 C 15.414062 -20.8125 14.71875 -20.96875 13.96875 -21.09375 C 13.21875 -21.226562 12.425781 -21.296875 11.59375 -21.296875 C 10.195312 -21.296875 9.054688 -21.078125 8.171875 -20.640625 C 7.285156 -20.210938 6.84375 -19.53125 6.84375 -18.59375 C 6.84375 -18.0625 7 -17.613281 7.3125 -17.25 C 7.632812 -16.882812 8.070312 -16.554688 8.625 -16.265625 C 9.175781 -15.984375 9.828125 -15.742188 10.578125 -15.546875 C 11.328125 -15.347656 12.117188 -15.148438 12.953125 -14.953125 C 13.984375 -14.679688 15.003906 -14.378906 16.015625 -14.046875 C 17.035156 -13.710938 17.945312 -13.253906 18.75 -12.671875 C 19.550781 -12.085938 20.203125 -11.351562 20.703125 -10.46875 C 21.203125 -9.59375 21.453125 -8.503906 21.453125 -7.203125 C 21.453125 -4.734375 20.515625 -2.773438 18.640625 -1.328125 C 16.773438 0.117188 14.03125 0.84375 10.40625 0.84375 C 9.601562 0.84375 8.648438 0.785156 7.546875 0.671875 C 6.453125 0.554688 5.421875 0.335938 4.453125 0.015625 C 3.484375 -0.296875 2.65625 -0.742188 1.96875 -1.328125 C 1.289062 -1.910156 0.953125 -2.6875 0.953125 -3.65625 C 0.953125 -4.320312 1.109375 -4.828125 1.421875 -5.171875 C 1.742188 -5.523438 2.132812 -5.703125 2.59375 -5.703125 C 2.96875 -5.703125 3.351562 -5.582031 3.75 -5.34375 C 4.144531 -5.113281 4.625 -4.863281 5.1875 -4.59375 C 5.757812 -4.332031 6.445312 -4.082031 7.25 -3.84375 C 8.050781 -3.613281 9.035156 -3.5 10.203125 -3.5 C 10.628906 -3.5 11.191406 -3.523438 11.890625 -3.578125 C 12.597656 -3.628906 13.289062 -3.769531 13.96875 -4 C 14.65625 -4.226562 15.238281 -4.550781 15.71875 -4.96875 C 16.207031 -5.382812 16.453125 -5.976562 16.453125 -6.75 C 16.453125 -7.351562 16.285156 -7.863281 15.953125 -8.28125 C 15.617188 -8.695312 15.164062 -9.050781 14.59375 -9.34375 C 14.03125 -9.644531 13.375 -9.90625 12.625 -10.125 C 11.875 -10.34375 11.082031 -10.566406 10.25 -10.796875 C 9.28125 -11.066406 8.300781 -11.367188 7.3125 -11.703125 C 6.332031 -12.035156 5.441406 -12.46875 4.640625 -13 C 3.847656 -13.53125 3.203125 -14.203125 2.703125 -15.015625 C 2.203125 -15.835938 1.953125 -16.847656 1.953125 -18.046875 C 1.953125 -19.179688 2.179688 -20.238281 2.640625 -21.21875 C 3.109375 -22.207031 3.773438 -23.066406 4.640625 -23.796875 C 5.515625 -24.535156 6.554688 -25.101562 7.765625 -25.5 C 8.984375 -25.894531 10.34375 -26.09375 11.84375 -26.09375 Z M 11.84375 -26.09375 "/></g></g></g><g fill="#e11d48" fill-opacity="1"><g transform="translate(203.944539, 205.251666)"><g><path d="M 7.34375 -3.25 C 7.25 -5.351562 7.191406 -7.84375 7.171875 -10.71875 C 7.160156 -13.601562 7.15625 -16.878906 7.15625 -20.546875 C 6.820312 -20.515625 6.425781 -20.5 5.96875 -20.5 C 5.519531 -20.5 5.164062 -20.5 4.90625 -20.5 C 4.300781 -20.5 3.753906 -20.515625 3.265625 -20.546875 C 2.785156 -20.578125 2.363281 -20.675781 2 -20.84375 C 1.632812 -21.007812 1.347656 -21.25 1.140625 -21.5625 C 0.941406 -21.882812 0.84375 -22.332031 0.84375 -22.90625 C 0.84375 -24.5 2.046875 -25.296875 4.453125 -25.296875 C 4.816406 -25.296875 5.265625 -25.296875 5.796875 -25.296875 C 6.328125 -25.296875 6.78125 -25.265625 7.15625 -25.203125 C 7.15625 -26.960938 7.1875 -28.375 7.25 -29.4375 C 7.3125 -30.507812 7.4375 -31.335938 7.625 -31.921875 C 7.8125 -32.503906 8.0625 -32.882812 8.375 -33.0625 C 8.6875 -33.25 9.09375 -33.34375 9.59375 -33.34375 C 10.132812 -33.34375 10.570312 -33.160156 10.90625 -32.796875 C 11.238281 -32.429688 11.492188 -31.960938 11.671875 -31.390625 C 11.859375 -30.828125 11.972656 -30.195312 12.015625 -29.5 C 12.066406 -28.800781 12.09375 -28.117188 12.09375 -27.453125 C 12.09375 -26.984375 12.082031 -26.554688 12.0625 -26.171875 C 12.050781 -25.785156 12.046875 -25.445312 12.046875 -25.15625 C 12.515625 -25.28125 13 -25.351562 13.5 -25.375 C 14 -25.394531 14.484375 -25.40625 14.953125 -25.40625 C 16.179688 -25.40625 17.128906 -25.210938 17.796875 -24.828125 C 18.460938 -24.441406 18.796875 -23.816406 18.796875 -22.953125 C 18.796875 -22.421875 18.675781 -21.992188 18.4375 -21.671875 C 18.207031 -21.359375 17.898438 -21.117188 17.515625 -20.953125 C 17.140625 -20.785156 16.691406 -20.675781 16.171875 -20.625 C 15.660156 -20.570312 15.101562 -20.546875 14.5 -20.546875 C 14.164062 -20.546875 13.78125 -20.546875 13.34375 -20.546875 C 12.914062 -20.546875 12.519531 -20.582031 12.15625 -20.65625 C 12.15625 -18.882812 12.15625 -17.265625 12.15625 -15.796875 C 12.15625 -14.328125 12.132812 -12.914062 12.09375 -11.5625 C 12.0625 -10.21875 12.03125 -8.878906 12 -7.546875 C 11.96875 -6.210938 11.914062 -4.796875 11.84375 -3.296875 C 11.8125 -2.492188 11.738281 -1.875 11.625 -1.4375 C 11.507812 -1.007812 11.347656 -0.675781 11.140625 -0.4375 C 10.941406 -0.207031 10.71875 -0.0664062 10.46875 -0.015625 C 10.21875 0.0234375 9.925781 0.046875 9.59375 0.046875 C 9 0.046875 8.492188 -0.160156 8.078125 -0.578125 C 7.660156 -0.992188 7.414062 -1.882812 7.34375 -3.25 Z M 7.34375 -3.25 "/></g></g></g><g fill="#e11d48" fill-opacity="1"><g transform="translate(220.291462, 205.251666)"><g><path d="M 14.59375 -25.34375 C 16.5 -25.34375 18.203125 -25.050781 19.703125 -24.46875 C 21.203125 -23.882812 22.472656 -23.0625 23.515625 -22 C 24.566406 -20.9375 25.375 -19.632812 25.9375 -18.09375 C 26.507812 -16.5625 26.796875 -14.847656 26.796875 -12.953125 C 26.796875 -10.847656 26.46875 -8.960938 25.8125 -7.296875 C 25.164062 -5.628906 24.269531 -4.210938 23.125 -3.046875 C 21.976562 -1.878906 20.613281 -0.976562 19.03125 -0.34375 C 17.445312 0.28125 15.71875 0.59375 13.84375 0.59375 C 11.8125 0.59375 10.019531 0.242188 8.46875 -0.453125 C 6.925781 -1.148438 5.628906 -2.097656 4.578125 -3.296875 C 3.523438 -4.492188 2.734375 -5.875 2.203125 -7.4375 C 1.671875 -9.007812 1.40625 -10.664062 1.40625 -12.40625 C 1.40625 -14.300781 1.710938 -16.039062 2.328125 -17.625 C 2.941406 -19.207031 3.820312 -20.570312 4.96875 -21.71875 C 6.125 -22.875 7.515625 -23.765625 9.140625 -24.390625 C 10.773438 -25.023438 12.59375 -25.34375 14.59375 -25.34375 Z M 14.046875 -4 C 15.410156 -4 16.578125 -4.238281 17.546875 -4.71875 C 18.515625 -5.207031 19.304688 -5.847656 19.921875 -6.640625 C 20.535156 -7.441406 20.984375 -8.351562 21.265625 -9.375 C 21.554688 -10.394531 21.703125 -11.453125 21.703125 -12.546875 C 21.703125 -13.679688 21.554688 -14.738281 21.265625 -15.71875 C 20.984375 -16.707031 20.550781 -17.566406 19.96875 -18.296875 C 19.382812 -19.035156 18.632812 -19.613281 17.71875 -20.03125 C 16.800781 -20.445312 15.710938 -20.65625 14.453125 -20.65625 C 13.148438 -20.65625 12.015625 -20.4375 11.046875 -20 C 10.078125 -19.5625 9.269531 -18.96875 8.625 -18.21875 C 7.976562 -17.46875 7.488281 -16.578125 7.15625 -15.546875 C 6.820312 -14.515625 6.65625 -13.398438 6.65625 -12.203125 C 6.65625 -9.765625 7.28125 -7.785156 8.53125 -6.265625 C 9.78125 -4.753906 11.617188 -4 14.046875 -4 Z M 14.046875 -4 "/></g></g></g><g fill="#e11d48" fill-opacity="1"><g transform="translate(244.987089, 205.251666)"><g><path d="M 3.296875 -3.046875 C 3.160156 -4.210938 3.078125 -5.628906 3.046875 -7.296875 C 3.015625 -8.960938 3 -10.976562 3 -13.34375 C 3 -15.675781 3.003906 -17.5625 3.015625 -19 C 3.035156 -20.4375 3.128906 -21.703125 3.296875 -22.796875 C 3.460938 -24.160156 3.71875 -25.039062 4.0625 -25.4375 C 4.414062 -25.84375 4.878906 -26.046875 5.453125 -26.046875 C 5.847656 -26.046875 6.203125 -26.007812 6.515625 -25.9375 C 6.835938 -25.875 7.125 -25.734375 7.375 -25.515625 C 7.625 -25.304688 7.816406 -25 7.953125 -24.59375 C 8.085938 -24.195312 8.15625 -23.648438 8.15625 -22.953125 C 8.15625 -22.816406 8.171875 -22.679688 8.203125 -22.546875 C 8.203125 -22.410156 8.207031 -22.269531 8.21875 -22.125 C 8.238281 -21.976562 8.25 -21.800781 8.25 -21.59375 C 9.144531 -22.726562 10.164062 -23.695312 11.3125 -24.5 C 12.46875 -25.300781 13.78125 -25.703125 15.25 -25.703125 C 17.21875 -25.703125 18.203125 -24.882812 18.203125 -23.25 C 18.203125 -22.644531 18.078125 -22.144531 17.828125 -21.75 C 17.578125 -21.351562 17.222656 -21.03125 16.765625 -20.78125 C 16.316406 -20.53125 15.800781 -20.335938 15.21875 -20.203125 C 14.632812 -20.066406 13.992188 -19.929688 13.296875 -19.796875 C 12.234375 -19.597656 11.234375 -19.222656 10.296875 -18.671875 C 9.367188 -18.117188 8.738281 -17.425781 8.40625 -16.59375 C 8.40625 -15.96875 8.410156 -15.503906 8.421875 -15.203125 C 8.441406 -14.898438 8.457031 -14.648438 8.46875 -14.453125 C 8.488281 -14.253906 8.5 -14.035156 8.5 -13.796875 C 8.5 -13.566406 8.5 -13.203125 8.5 -12.703125 C 8.5 -11.003906 8.460938 -9.410156 8.390625 -7.921875 C 8.328125 -6.441406 8.265625 -4.832031 8.203125 -3.09375 C 8.171875 -2.300781 8.078125 -1.6875 7.921875 -1.25 C 7.773438 -0.8125 7.59375 -0.476562 7.375 -0.25 C 7.15625 -0.0195312 6.910156 0.117188 6.640625 0.171875 C 6.378906 0.222656 6.113281 0.25 5.84375 0.25 C 4.914062 0.25 4.289062 0.0390625 3.96875 -0.375 C 3.65625 -0.789062 3.429688 -1.679688 3.296875 -3.046875 Z M 3.296875 -3.046875 "/></g></g></g><g fill="#e11d48" fill-opacity="1"><g transform="translate(260.334165, 205.251666)"><g><path d="M 8.90625 9.15625 C 8.46875 9.914062 8.054688 10.476562 7.671875 10.84375 C 7.285156 11.21875 6.84375 11.40625 6.34375 11.40625 C 5.882812 11.40625 5.421875 11.253906 4.953125 10.953125 C 4.484375 10.648438 4.25 10.234375 4.25 9.703125 C 4.25 9.203125 4.421875 8.484375 4.765625 7.546875 C 5.117188 6.617188 5.550781 5.601562 6.0625 4.5 C 6.582031 3.394531 7.125 2.257812 7.6875 1.09375 C 8.257812 -0.0703125 8.78125 -1.132812 9.25 -2.09375 L 9.59375 -2.84375 C 8.59375 -4.8125 7.566406 -6.910156 6.515625 -9.140625 C 5.472656 -11.378906 4.515625 -13.5 3.640625 -15.5 C 2.773438 -17.5 2.066406 -19.238281 1.515625 -20.71875 C 0.972656 -22.207031 0.703125 -23.1875 0.703125 -23.65625 C 0.703125 -24.082031 0.875 -24.453125 1.21875 -24.765625 C 1.570312 -25.085938 2.015625 -25.25 2.546875 -25.25 C 3.015625 -25.25 3.460938 -25.15625 3.890625 -24.96875 C 4.328125 -24.789062 4.726562 -24.382812 5.09375 -23.75 C 5.632812 -22.75 6.195312 -21.609375 6.78125 -20.328125 C 7.363281 -19.046875 7.945312 -17.703125 8.53125 -16.296875 C 9.113281 -14.898438 9.710938 -13.484375 10.328125 -12.046875 C 10.941406 -10.617188 11.566406 -9.238281 12.203125 -7.90625 C 12.929688 -9.269531 13.710938 -10.703125 14.546875 -12.203125 C 15.378906 -13.703125 16.1875 -15.148438 16.96875 -16.546875 C 17.757812 -17.953125 18.488281 -19.242188 19.15625 -20.421875 C 19.820312 -21.609375 20.382812 -22.601562 20.84375 -23.40625 C 21.3125 -24.164062 21.78125 -24.710938 22.25 -25.046875 C 22.71875 -25.378906 23.203125 -25.546875 23.703125 -25.546875 C 24.035156 -25.546875 24.367188 -25.40625 24.703125 -25.125 C 25.035156 -24.84375 25.203125 -24.46875 25.203125 -24 C 25.203125 -23.300781 24.890625 -22.175781 24.265625 -20.625 C 23.648438 -19.070312 22.859375 -17.28125 21.890625 -15.25 C 20.929688 -13.21875 19.84375 -11.039062 18.625 -8.71875 C 17.40625 -6.40625 16.195312 -4.140625 15 -1.921875 C 13.800781 0.296875 12.660156 2.367188 11.578125 4.296875 C 10.492188 6.234375 9.601562 7.851562 8.90625 9.15625 Z M 8.90625 9.15625 "/></g></g></g><g clip-path="url(#f1366cb540)"><path fill="#e11d48" d="M 189.117188 202.785156 C 189.117188 202.785156 197.070312 203.515625 199.027344 203.101562 C 200.984375 202.6875 200.214844 204.523438 198.375 205.890625 C 196.535156 207.253906 194.695312 210.695312 195.703125 215.621094 C 196.710938 220.546875 197.007812 222.445312 194.933594 221.910156 C 192.855469 221.375 195.722656 217.875 194.644531 211.644531 C 193.566406 205.417969 189.355469 204.585938 189.007812 204.472656 C 188.515625 204.3125 187.503906 202.9375 189.117188 202.785156 Z M 189.117188 202.785156 " fill-opacity="1" fill-rule="nonzero"/></g><g clip-path="url(#8f64e510c6)"><path fill="#e11d48" d="M 189.59375 203.335938 C 189.59375 203.335938 197.542969 204.070312 199.503906 203.65625 C 201.460938 203.238281 200.6875 205.078125 198.847656 206.445312 C 197.011719 207.808594 195.171875 211.25 196.175781 216.175781 C 197.183594 221.097656 197.484375 222.996094 195.40625 222.464844 C 193.328125 221.929688 196.195312 218.429688 195.117188 212.199219 C 194.042969 205.96875 189.828125 205.136719 189.480469 205.023438 C 188.992188 204.867188 187.976562 203.488281 189.59375 203.335938 Z M 189.59375 203.335938 " fill-opacity="1" fill-rule="nonzero"/></g><g clip-path="url(#2898fe241f)"><path fill="#e11d48" d="M 269.867188 197.652344 C 267.542969 196.84375 265.730469 196.445312 263.289062 197.089844 C 258.800781 198.28125 254.496094 199.761719 249.792969 198.757812 C 247.003906 198.160156 244.445312 196.835938 241.796875 195.828125 C 240.34375 195.277344 238.746094 194.699219 237.183594 194.613281 C 235.363281 194.511719 233.511719 195.070312 231.792969 195.597656 C 229.910156 196.179688 227.957031 196.507812 225.976562 196.527344 C 223.703125 196.554688 221.433594 196.21875 219.15625 196.199219 C 216.691406 196.183594 214.253906 197.566406 212.039062 198.5 C 210.40625 199.183594 208.691406 199.765625 207.253906 200.828125 C 205.996094 201.753906 205.277344 203.34375 205.429688 204.902344 C 205.742188 207.996094 209.164062 210.402344 208.6875 213.476562 C 208.40625 215.265625 206.726562 216.746094 207.140625 218.652344 C 207.457031 220.109375 208.835938 220.695312 210.113281 219.972656 C 210.703125 219.636719 211.148438 219.046875 211.285156 218.382812 C 211.5 217.34375 210.96875 216.417969 210.664062 215.464844 C 210.34375 214.480469 210.101562 213.472656 209.988281 212.441406 C 209.863281 211.285156 209.878906 210.148438 210.421875 209.097656 C 211.082031 207.8125 212.167969 206.695312 213.070312 205.582031 C 213.578125 204.941406 214.246094 203.515625 215.195312 203.5 C 216.5625 203.472656 216.785156 205.964844 216.71875 206.878906 C 216.613281 208.347656 216.242188 209.949219 217.023438 211.191406 C 217.476562 211.914062 218.246094 212.371094 218.785156 213.023438 C 219.929688 214.410156 219.886719 216.40625 219.582031 218.179688 C 219.28125 219.949219 218.769531 221.761719 219.179688 223.507812 C 219.449219 224.652344 220.585938 225.859375 221.636719 225.332031 C 222.230469 225.03125 222.472656 224.3125 222.589844 223.65625 C 222.875 222.015625 222.734375 220.300781 222.183594 218.730469 C 221.902344 217.921875 221.507812 217.132812 221.488281 216.28125 C 221.472656 215.429688 221.980469 214.476562 222.828125 214.367188 C 223.285156 214.308594 223.738281 214.503906 224.199219 214.523438 C 225.328125 214.578125 226.265625 213.554688 226.585938 212.472656 C 226.914062 211.386719 226.796875 210.230469 226.84375 209.097656 C 226.886719 207.964844 227.136719 206.746094 227.992188 206 C 228.847656 205.253906 230.4375 205.335938 230.878906 206.378906 C 230.988281 206.632812 231.03125 206.933594 231.257812 207.097656 C 231.730469 207.4375 232.277344 206.820312 232.789062 206.535156 C 233.824219 205.957031 235.148438 207.003906 235.332031 208.171875 C 235.511719 209.34375 234.949219 210.484375 234.441406 211.554688 C 233.929688 212.621094 233.4375 213.820312 233.761719 214.957031 C 234.082031 216.09375 235.640625 216.882812 236.5 216.070312 C 236.980469 215.617188 237.046875 214.882812 237.019531 214.21875 C 236.964844 212.804688 236.625 211.417969 236.550781 210.007812 C 236.476562 208.597656 236.707031 207.085938 237.625 206.011719 C 238.546875 204.941406 240.3125 204.519531 241.410156 205.410156 C 242.476562 206.269531 242.824219 208.140625 244.1875 208.269531 C 244.75 208.328125 245.28125 208.03125 245.792969 207.78125 C 247.417969 207.003906 249.257812 206.667969 251.054688 206.832031 C 252.601562 206.964844 254.328125 207.683594 254.726562 209.183594 C 254.996094 210.199219 254.554688 211.269531 254.023438 212.171875 C 253.488281 213.082031 252.835938 213.953125 252.625 214.984375 C 252.417969 216.015625 252.820312 217.277344 253.820312 217.613281 C 255.175781 218.066406 256.4375 216.5 256.503906 215.070312 C 256.574219 213.644531 255.945312 212.265625 255.890625 210.839844 C 255.847656 209.832031 256.269531 208.632812 257.253906 208.402344 C 258.535156 208.097656 259.46875 209.597656 259.816406 210.871094 C 260.523438 213.433594 260.691406 216.140625 260.300781 218.769531 C 260.183594 219.59375 260.050781 220.5625 260.644531 221.140625 C 261.503906 221.984375 263.078125 221.082031 263.34375 219.90625 C 263.609375 218.734375 263.078125 217.542969 262.699219 216.398438 C 262.316406 215.257812 262.125 213.867188 262.914062 212.957031 C 263.277344 212.539062 263.792969 212.292969 264.195312 211.910156 C 265.058594 211.089844 265.238281 209.792969 265.316406 208.605469 C 265.398438 207.414062 265.453125 206.140625 266.164062 205.183594 C 266.878906 204.226562 268.53125 203.898438 269.210938 204.871094 C 269.84375 205.773438 269.253906 206.976562 268.921875 208.027344 C 268.59375 209.078125 268.960938 210.660156 270.054688 210.566406 C 270.808594 210.5 271.210938 209.601562 271.179688 208.847656 C 271.152344 208.09375 270.859375 207.351562 270.917969 206.597656 C 271.082031 204.601562 273.570312 203.371094 273.648438 201.367188 C 273.726562 199.464844 271.65625 198.277344 269.867188 197.652344 Z M 269.867188 197.652344 " fill-opacity="1" fill-rule="nonzero"/></g><g clip-path="url(#d065649dc6)"><path fill="#e11d48" d="M 142.394531 194.003906 C 142.457031 195.5625 142.960938 197.035156 143.175781 198.566406 C 143.257812 199.15625 143.066406 199.609375 142.675781 199.996094 C 142.1875 200.480469 141.574219 200.367188 141.269531 199.746094 C 140.964844 199.125 140.996094 198.46875 141.128906 197.816406 C 141.1875 197.527344 141.265625 197.238281 141.371094 196.964844 C 141.792969 195.859375 141.3125 187.605469 141.113281 185.601562 C 141.027344 184.777344 141.136719 183.953125 141.207031 183.132812 C 141.273438 182.351562 141.882812 181.902344 142.679688 181.984375 C 143.226562 182.039062 143.765625 182.15625 144.304688 182.257812 C 145.28125 182.4375 146.238281 182.425781 147.191406 182.121094 C 147.613281 181.984375 148.035156 181.847656 148.480469 181.789062 C 149.183594 181.699219 149.742188 181.914062 150.109375 182.523438 C 150.492188 183.152344 150.605469 183.828125 150.246094 184.515625 C 150.03125 184.925781 149.683594 185.09375 149.253906 185.042969 C 148.410156 184.9375 148 185.285156 147.964844 186.144531 C 147.949219 186.445312 148.023438 186.730469 148.132812 187.007812 C 148.261719 187.351562 148.316406 187.707031 148.324219 188.066406 C 148.328125 188.445312 148.054688 188.757812 147.785156 188.714844 C 147.480469 188.664062 147.285156 188.351562 147.339844 187.980469 C 147.363281 187.835938 147.398438 187.6875 147.460938 187.554688 C 147.707031 186.992188 147.585938 186.433594 147.472656 185.871094 C 147.4375 185.699219 147.375 185.546875 147.171875 185.507812 C 146.945312 185.464844 146.816406 185.589844 146.695312 185.753906 C 146.464844 186.066406 146.335938 186.417969 146.296875 186.804688 C 146.234375 187.425781 146.335938 188.03125 146.476562 188.628906 C 146.601562 189.164062 146.746094 189.695312 146.878906 190.230469 C 147.039062 190.878906 146.902344 191.488281 146.601562 192.070312 C 146.480469 192.304688 146.300781 192.496094 146.011719 192.480469 C 145.71875 192.464844 145.570312 192.246094 145.46875 192.003906 C 145.25 191.464844 145.234375 190.902344 145.503906 190.398438 C 146.09375 189.296875 145.933594 188.136719 145.847656 186.980469 C 145.8125 186.539062 145.679688 186.105469 145.613281 185.667969 C 145.53125 185.121094 145.195312 184.757812 144.78125 184.445312 C 144.347656 184.121094 143.96875 184.15625 143.605469 184.5625 C 143.210938 184.996094 143.019531 185.539062 142.851562 186.085938 C 142.59375 186.9375 142.425781 187.8125 142.285156 188.691406 C 142.195312 189.253906 142.34375 192.800781 142.394531 194.003906 " fill-opacity="1" fill-rule="nonzero"/></g><path fill="#e11d48" d="M 148.601562 190.105469 C 148.558594 190.285156 148.480469 190.476562 148.253906 190.480469 C 148 190.488281 147.957031 190.285156 147.960938 190.082031 C 147.964844 189.886719 148.007812 189.691406 148.246094 189.652344 C 148.421875 189.625 148.617188 189.875 148.601562 190.105469 " fill-opacity="1" fill-rule="nonzero"/><path fill="#e11d48" d="M 148.679688 191.054688 C 148.667969 191.199219 148.59375 191.292969 148.441406 191.28125 C 148.359375 191.277344 148.277344 191.222656 148.28125 191.121094 C 148.285156 190.972656 148.371094 190.890625 148.519531 190.894531 C 148.609375 190.898438 148.671875 190.957031 148.679688 191.054688 " fill-opacity="1" fill-rule="nonzero"/><g clip-path="url(#7b1ef9b69d)"><path fill="#e11d48" d="M 175.472656 202.546875 C 174.71875 202.285156 174.132812 202.15625 173.339844 202.367188 C 171.886719 202.75 170.492188 203.230469 168.96875 202.90625 C 168.0625 202.710938 167.234375 202.28125 166.375 201.957031 C 165.90625 201.777344 165.386719 201.589844 164.878906 201.5625 C 164.292969 201.527344 163.691406 201.710938 163.136719 201.882812 C 162.523438 202.070312 161.890625 202.175781 161.25 202.183594 C 160.511719 202.191406 159.777344 202.082031 159.039062 202.078125 C 158.238281 202.070312 157.449219 202.519531 156.730469 202.820312 C 156.203125 203.042969 155.648438 203.234375 155.179688 203.578125 C 154.773438 203.878906 154.539062 204.390625 154.589844 204.898438 C 154.691406 205.898438 155.800781 206.679688 155.644531 207.675781 C 155.554688 208.257812 155.011719 208.734375 155.144531 209.351562 C 155.246094 209.824219 155.695312 210.015625 156.109375 209.78125 C 156.300781 209.671875 156.441406 209.480469 156.488281 209.265625 C 156.558594 208.929688 156.386719 208.628906 156.285156 208.320312 C 156.183594 208 156.105469 207.675781 156.066406 207.339844 C 156.027344 206.964844 156.03125 206.597656 156.207031 206.257812 C 156.421875 205.839844 156.773438 205.476562 157.066406 205.117188 C 157.230469 204.910156 157.449219 204.445312 157.753906 204.441406 C 158.199219 204.433594 158.269531 205.242188 158.25 205.539062 C 158.214844 206.011719 158.09375 206.53125 158.347656 206.9375 C 158.492188 207.167969 158.742188 207.316406 158.917969 207.527344 C 159.289062 207.976562 159.277344 208.625 159.175781 209.199219 C 159.078125 209.773438 158.914062 210.359375 159.046875 210.925781 C 159.132812 211.296875 159.503906 211.6875 159.84375 211.519531 C 160.035156 211.421875 160.113281 211.1875 160.152344 210.976562 C 160.242188 210.445312 160.199219 209.886719 160.019531 209.378906 C 159.929688 209.117188 159.800781 208.859375 159.796875 208.585938 C 159.789062 208.308594 159.953125 208 160.230469 207.964844 C 160.378906 207.945312 160.523438 208.007812 160.671875 208.015625 C 161.039062 208.03125 161.34375 207.703125 161.449219 207.351562 C 161.554688 207 161.515625 206.625 161.53125 206.257812 C 161.542969 205.890625 161.625 205.496094 161.902344 205.253906 C 162.179688 205.011719 162.695312 205.039062 162.839844 205.375 C 162.875 205.457031 162.886719 205.554688 162.960938 205.609375 C 163.113281 205.71875 163.292969 205.519531 163.457031 205.425781 C 163.792969 205.238281 164.222656 205.578125 164.28125 205.957031 C 164.339844 206.335938 164.15625 206.707031 163.992188 207.050781 C 163.828125 207.398438 163.667969 207.785156 163.773438 208.15625 C 163.875 208.523438 164.382812 208.78125 164.660156 208.515625 C 164.816406 208.371094 164.835938 208.132812 164.828125 207.917969 C 164.808594 207.457031 164.699219 207.007812 164.675781 206.550781 C 164.652344 206.09375 164.726562 205.605469 165.023438 205.257812 C 165.324219 204.910156 165.894531 204.773438 166.25 205.0625 C 166.597656 205.339844 166.710938 205.945312 167.152344 205.988281 C 167.332031 206.007812 167.503906 205.910156 167.671875 205.832031 C 168.199219 205.578125 168.792969 205.46875 169.375 205.523438 C 169.878906 205.566406 170.4375 205.796875 170.566406 206.285156 C 170.65625 206.613281 170.511719 206.960938 170.339844 207.253906 C 170.164062 207.546875 169.953125 207.832031 169.886719 208.164062 C 169.816406 208.5 169.949219 208.90625 170.273438 209.015625 C 170.710938 209.164062 171.121094 208.65625 171.144531 208.191406 C 171.164062 207.730469 170.960938 207.285156 170.945312 206.820312 C 170.929688 206.496094 171.066406 206.105469 171.386719 206.03125 C 171.800781 205.933594 172.105469 206.417969 172.21875 206.832031 C 172.445312 207.660156 172.5 208.539062 172.375 209.390625 C 172.335938 209.65625 172.292969 209.972656 172.484375 210.160156 C 172.761719 210.433594 173.273438 210.140625 173.359375 209.761719 C 173.445312 209.378906 173.273438 208.996094 173.152344 208.625 C 173.027344 208.253906 172.964844 207.804688 173.21875 207.507812 C 173.335938 207.371094 173.503906 207.292969 173.636719 207.167969 C 173.914062 206.902344 173.972656 206.484375 174 206.097656 C 174.023438 205.710938 174.042969 205.296875 174.273438 204.988281 C 174.503906 204.679688 175.042969 204.570312 175.261719 204.886719 C 175.464844 205.179688 175.273438 205.570312 175.167969 205.910156 C 175.0625 206.25 175.179688 206.761719 175.535156 206.734375 C 175.777344 206.710938 175.910156 206.421875 175.898438 206.175781 C 175.890625 205.933594 175.796875 205.691406 175.8125 205.445312 C 175.867188 204.800781 176.675781 204.402344 176.699219 203.75 C 176.722656 203.136719 176.054688 202.75 175.472656 202.546875 Z M 175.472656 202.546875 " fill-opacity="1" fill-rule="nonzero"/></g></svg>